<?xml version="1.0" encoding="UTF-8" standalone="no"?><!DOCTYPE svg PUBLIC "-//W3C//DTD SVG 1.1//EN" "http://www.w3.org/Graphics/SVG/1.1/DTD/svg11.dtd"><svg width="100%" height="100%" viewBox="0 0 25000 16294" version="1.1" xmlns="http://www.w3.org/2000/svg" xmlns:xlink="http://www.w3.org/1999/xlink" xml:space="preserve" xmlns:serif="http://www.serif.com/" style="fill-rule:evenodd;clip-rule:evenodd;stroke-linecap:square;stroke-linejoin:round;stroke-miterlimit:1.5;"><g id="Data-Flow-Chart" serif:id="Data Flow Chart"><path id="User-Interface" serif:id="User Interface" d="M12500,7367.15l-0,-5403.29l-12055.7,0l0,5403.29l12055.7,0Z" style="fill:#fbfcfd;"/><g><g><g><g><path d="M6415.09,2123.61c-0,-5.84 -4.741,-10.581 -10.581,-10.581l-299.671,-0c-5.84,-0 -10.581,4.741 -10.581,10.581l-0,82.59c-0,5.84 4.741,10.581 10.581,10.581l299.671,0c5.84,0 10.581,-4.741 10.581,-10.581l-0,-82.59Z" style="fill:#1d263d;"/><g><path d="M6254.67,2159.6c0,-2.93 -2.379,-5.309 -5.309,-5.309l-130.664,-0c-2.93,-0 -5.309,2.379 -5.309,5.309l-0,10.619c-0,2.93 2.379,5.309 5.309,5.309l130.664,-0c2.93,-0 5.309,-2.379 5.309,-5.309l0,-10.619Z" style="fill:#f0f2f7;"/><path d="M6395.92,2159.47c-0,-2.863 -2.325,-5.187 -5.188,-5.187l-10.422,-0c-2.863,-0 -5.187,2.324 -5.187,5.187l-0,10.375c-0,2.864 2.324,5.188 5.187,5.188l10.422,0c2.863,0 5.188,-2.324 5.188,-5.188l-0,-10.375Z" style="fill:#f0f2f7;"/><path d="M6356.4,2159.47c0,-2.863 -2.324,-5.187 -5.187,-5.187l-10.422,-0c-2.863,-0 -5.188,2.324 -5.188,5.187l0,10.375c0,2.864 2.325,5.188 5.188,5.188l10.422,0c2.863,0 5.187,-2.324 5.187,-5.188l0,-10.375Z" style="fill:#f0f2f7;"/><path d="M6316.89,2159.47c-0,-2.863 -2.325,-5.187 -5.188,-5.187l-10.422,-0c-2.863,-0 -5.187,2.324 -5.187,5.187l-0,10.375c-0,2.864 2.324,5.188 5.187,5.188l10.422,0c2.863,0 5.188,-2.324 5.188,-5.188l-0,-10.375Z" style="fill:#f0f2f7;"/></g></g><g><path d="M6415.09,2248.11c-0,-5.84 -4.741,-10.581 -10.581,-10.581l-299.671,-0c-5.84,-0 -10.581,4.741 -10.581,10.581l-0,82.59c-0,5.84 4.741,10.581 10.581,10.581l299.671,0c5.84,0 10.581,-4.741 10.581,-10.581l-0,-82.59Z" style="fill:#1d263d;"/><g><path d="M6254.67,2284.1c0,-2.93 -2.379,-5.309 -5.309,-5.309l-130.664,-0c-2.93,-0 -5.309,2.379 -5.309,5.309l-0,10.618c-0,2.931 2.379,5.31 5.309,5.31l130.664,-0c2.93,-0 5.309,-2.379 5.309,-5.31l0,-10.618Z" style="fill:#f0f2f7;"/><path d="M6395.92,2283.98c-0,-2.863 -2.325,-5.187 -5.188,-5.187l-10.422,-0c-2.863,-0 -5.187,2.324 -5.187,5.187l-0,10.375c-0,2.864 2.324,5.188 5.187,5.188l10.422,0c2.863,0 5.188,-2.324 5.188,-5.188l-0,-10.375Z" style="fill:#f0f2f7;"/><path d="M6356.4,2283.98c0,-2.863 -2.324,-5.187 -5.187,-5.187l-10.422,-0c-2.863,-0 -5.188,2.324 -5.188,5.187l0,10.375c0,2.864 2.325,5.188 5.188,5.188l10.422,0c2.863,0 5.187,-2.324 5.187,-5.188l0,-10.375Z" style="fill:#f0f2f7;"/><path d="M6316.89,2283.98c-0,-2.863 -2.325,-5.187 -5.188,-5.187l-10.422,-0c-2.863,-0 -5.187,2.324 -5.187,5.187l-0,10.375c-0,2.864 2.324,5.188 5.187,5.188l10.422,0c2.863,0 5.188,-2.324 5.188,-5.188l-0,-10.375Z" style="fill:#f0f2f7;"/></g></g><g><path d="M6415.09,2372.62c-0,-5.84 -4.741,-10.581 -10.581,-10.581l-299.671,-0c-5.84,-0 -10.581,4.741 -10.581,10.581l-0,82.59c-0,5.84 4.741,10.581 10.581,10.581l299.671,0c5.84,0 10.581,-4.741 10.581,-10.581l-0,-82.59Z" style="fill:#1d263d;"/><g><path d="M6254.67,2408.6c0,-2.931 -2.379,-5.31 -5.309,-5.31l-130.664,0c-2.93,0 -5.309,2.379 -5.309,5.31l-0,10.618c-0,2.931 2.379,5.31 5.309,5.31l130.664,-0c2.93,-0 5.309,-2.379 5.309,-5.31l0,-10.618Z" style="fill:#f0f2f7;"/><path d="M6395.92,2408.48c-0,-2.863 -2.325,-5.188 -5.188,-5.188l-10.422,0c-2.863,0 -5.187,2.325 -5.187,5.188l-0,10.375c-0,2.863 2.324,5.188 5.187,5.188l10.422,-0c2.863,-0 5.188,-2.325 5.188,-5.188l-0,-10.375Z" style="fill:#f0f2f7;"/><path d="M6356.4,2408.48c0,-2.863 -2.324,-5.188 -5.187,-5.188l-10.422,0c-2.863,0 -5.188,2.325 -5.188,5.188l0,10.375c0,2.863 2.325,5.188 5.188,5.188l10.422,-0c2.863,-0 5.187,-2.325 5.187,-5.188l0,-10.375Z" style="fill:#f0f2f7;"/><path d="M6316.89,2408.48c-0,-2.863 -2.325,-5.188 -5.188,-5.188l-10.422,0c-2.863,0 -5.187,2.325 -5.187,5.188l-0,10.375c-0,2.863 2.324,5.188 5.187,5.188l10.422,-0c2.863,-0 5.188,-2.325 5.188,-5.188l-0,-10.375Z" style="fill:#f0f2f7;"/></g></g></g><text x="6065.47px" y="2652.06px" style="font-family:'Lato-Bold', 'Lato', sans-serif;font-weight:700;font-size:166.667px;fill:#1d273d;">WEB</text></g><g><ellipse cx="5674.17" cy="2374.02" rx="24.583" ry="22.917" style="fill:#1d263d;"/><ellipse cx="5772.5" cy="2374.02" rx="24.583" ry="22.917" style="fill:#1d263d;"/><ellipse cx="5870.84" cy="2374.02" rx="24.583" ry="22.917" style="fill:#1d263d;"/></g><g><ellipse cx="6639.03" cy="2374.02" rx="24.583" ry="22.917" style="fill:#1d263d;"/><ellipse cx="6737.36" cy="2374.02" rx="24.583" ry="22.917" style="fill:#1d263d;"/><ellipse cx="6835.7" cy="2374.02" rx="24.583" ry="22.917" style="fill:#1d263d;"/></g></g><path d="M5335.35,2373.45l-2736.71,-0" style="fill:none;stroke:#1d263d;stroke-width:55.56px;"/><path d="M9912.39,2373.45l-2736.71,-0" style="fill:none;stroke:#1d263d;stroke-width:55.56px;"/><g><g><path d="M12500,4582.18l0,-1798.8l-12055.7,-0l0,1798.8l12055.7,-0Z" style="fill:#f3f2fe;stroke:#525a6c;stroke-width:13.89px;stroke-dasharray:69.44,69.44,0,0;"/><text x="3842.02px" y="3880.92px" style="font-family:'Lato-Bold', 'Lato', sans-serif;font-weight:700;font-size:533.333px;fill:#48669d;fill-opacity:0.5;">BOUNDED CONTEXT</text></g></g><g><path d="M6250,5223l-0,-640.821l-6250,-0l0,640.821l6250,0Z" style="fill:#f2f8fe;stroke:#9cc1f3;stroke-width:13.89px;"/><text x="2557.4px" y="5001.66px" style="font-family:'Lato-Bold', 'Lato', sans-serif;font-weight:700;font-size:266.667px;fill:#1280e7;fill-opacity:0.5;">DOMAIN</text></g><g><path d="M12500,5223l-0,-640.821l-6250,-0l0,640.821l6250,0Z" style="fill:#f2f8fe;stroke:#9cc1f3;stroke-width:13.89px;"/><text x="8807.4px" y="5001.66px" style="font-family:'Lato-Bold', 'Lato', sans-serif;font-weight:700;font-size:266.667px;fill:#1280e7;fill-opacity:0.5;">DOMAIN</text></g><path id="Core" d="M444.308,7367.15l0,4240.88l24111.4,-0l-0,-4240.88l-24111.4,0Z" style="fill:#fefbf4;"/><text x="3274.95px" y="6592.28px" style="font-family:'Lato-Bold', 'Lato', sans-serif;font-weight:700;font-size:800px;fill:#87a9ca;fill-opacity:0.25;">USER INTERF<tspan x="8127.35px 8674.95px 9211.35px " y="6592.28px 6592.28px 6592.28px ">ACE</tspan></text></g><g id="External-Internal-Source" serif:id="External/Internal Source"><path d="M12500,0l-0,1519.56l12500,0l0,-1519.56l-12500,0Z" style="fill:#f27688;"/><text x="15795.2px" y="908.38px" style="font-family:'Lato-Bold', 'Lato', sans-serif;font-weight:700;font-size:400px;fill:#fce3e7;">EXTERNAL  ST<tspan x="18409.4px 18729.2px 18991.2px 19265px 19554.2px " y="908.38px 908.38px 908.38px 908.38px 908.38px ">ORAGE</tspan> / SERVICE</text></g><g id="External-Internal-User" serif:id="External/Internal User"><path d="M12500,1519.56l0,-1519.56l-12500,0l-0,1519.56l12500,0Z" style="fill:#525a6c;"/><text x="3571.2px" y="908.38px" style="font-family:'Lato-Bold', 'Lato', sans-serif;font-weight:700;font-size:400px;fill:#e8eaee;">INTERNAL \ EXTERNAL USER</text></g><text x="11421px" y="9784.79px" style="font-family:'Lato-Bold', 'Lato', sans-serif;font-weight:700;font-size:800px;fill:#efc051;fill-opacity:0.25;">CORE</text><g><g><path id="Infrastructure" d="M12500,1963.87l0,5411.67l12055.7,-0l-0,-5411.67l-12055.7,0Z" style="fill:#fef2f4;"/><text x="15045.2px" y="6596.91px" style="font-family:'Lato-Bold', 'Lato', sans-serif;font-weight:700;font-size:800px;fill:#f87089;fill-opacity:0.25;">INFRASTR<tspan x="18851.2px 19433.6px " y="6596.91px 6596.91px ">UC</tspan>TURE</text></g><g><path d="M12500,2783.38l0,1802.86l12055.7,0l-0,-1802.86l-12055.7,-0Z" style="fill:#fdeafb;stroke:#d282d3;stroke-width:13.89px;stroke-dasharray:69.44,69.44,0,0;"/><text x="15415.7px" y="3882.95px" style="font-family:'Lato-Bold', 'Lato', sans-serif;font-weight:700;font-size:533.333px;fill:#d5a6d0;fill-opacity:0.5;">FUNCTIONALITY GR<tspan x="20492px 20918.4px " y="3882.95px 3882.95px ">OU</tspan>P</text></g><g><g><circle cx="19079.7" cy="2373.14" r="24.77" style="fill:#ec3c56;"/><circle cx="18980.7" cy="2373.14" r="24.77" style="fill:#ec3c56;"/><circle cx="18881.6" cy="2373.14" r="24.77" style="fill:#ec3c56;"/></g><g><ellipse cx="18174.1" cy="2373.16" rx="24.77" ry="24.792" style="fill:#ec3c56;"/><ellipse cx="18075" cy="2373.16" rx="24.77" ry="24.792" style="fill:#ec3c56;"/><ellipse cx="17975.9" cy="2373.16" rx="24.77" ry="24.792" style="fill:#ec3c56;"/></g><g><g><g><path d="M18688.7,2122.32c-0,-5.871 -4.766,-10.636 -10.636,-10.636l-300.498,-0c-5.87,-0 -10.636,4.765 -10.636,10.636l-0,83.017c-0,5.87 4.766,10.636 10.636,10.636l300.498,-0c5.87,-0 10.636,-4.766 10.636,-10.636l-0,-83.017Z" style="fill:#ec3c56;"/></g><g><path d="M18688.7,2247.47c-0,-5.871 -4.766,-10.636 -10.636,-10.636l-300.498,-0c-5.87,-0 -10.636,4.765 -10.636,10.636l-0,83.017c-0,5.87 4.766,10.636 10.636,10.636l300.498,-0c5.87,-0 10.636,-4.766 10.636,-10.636l-0,-83.017Z" style="fill:#ec3c56;"/></g><g><path d="M18688.7,2372.61c-0,-5.87 -4.766,-10.636 -10.636,-10.636l-300.498,-0c-5.87,-0 -10.636,4.766 -10.636,10.636l-0,83.017c-0,5.87 4.766,10.636 10.636,10.636l300.498,0c5.87,0 10.636,-4.766 10.636,-10.636l-0,-83.017Z" style="fill:#ec3c56;"/></g></g><text x="18411.3px" y="2652.86px" style="font-family:'Lato-Bold', 'Lato', sans-serif;font-weight:700;font-size:166.667px;fill:#ec3c56;">DB</text></g></g><g><g><path d="M12500,4582.07l0,641.816l6027.85,0l-0,-641.816l-6027.85,0Z" style="fill:#fbf2fe;stroke:#d282d3;stroke-width:13.89px;"/><text x="14451.1px" y="5002.05px" style="font-family:'Lato-Bold', 'Lato', sans-serif;font-weight:700;font-size:266.667px;fill:#bb20ee;fill-opacity:0.3;">FUNCTIONALITY</text></g><g><path d="M18527.8,4582.07l-0,641.816l6027.85,0l-0,-641.816l-6027.85,0Z" style="fill:#fbf2fe;stroke:#d282d3;stroke-width:13.89px;"/><text x="20479px" y="5002.05px" style="font-family:'Lato-Bold', 'Lato', sans-serif;font-weight:700;font-size:266.667px;fill:#bb20ee;fill-opacity:0.3;">FUNCTIONALITY</text></g></g></g><path d="M-0,7375.53l25000,-0" style="fill:none;stroke:#ee5168;stroke-width:16.67px;stroke-linecap:round;"/><g><g><rect x="-0" y="1519.56" width="25000" height="444.308" style="fill:#e1e8f4;"/><text x="11291.8px" y="1816.01px" style="font-family:'Lato-Bold', 'Lato', sans-serif;font-weight:700;font-size:200px;fill:#48669d;">DEPENDENCY INJECTION</text></g><g><rect x="-0" y="15848.9" width="25000" height="444.308" style="fill:#e1e8f4;"/><text x="11291.8px" y="16145.4px" style="font-family:'Lato-Bold', 'Lato', sans-serif;font-weight:700;font-size:200px;fill:#48669d;">DEPENDENCY INJECTION</text></g><path d="M25000,16293.2l0,-14773.7l-444.308,0l-0,14773.7l444.308,0Z" style="fill:#e1e8f4;"/><path d="M444.308,16293.2l0,-14773.7l-444.308,0l0,14773.7l444.308,0Z" style="fill:#e1e8f4;"/></g><g><g><path d="M3457.85,15848.9l-0,-698.187l-3013.54,-0l0,698.187l3013.54,-0Z" style="fill:#fce3c9;"/><text x="989.099px" y="15589px" style="font-family:'Lato-Bold', 'Lato', sans-serif;font-weight:700;font-size:240px;fill:#f69739;fill-opacity:0.5;">DOMAIN MODEL</text></g><g><path d="M6471.39,15848.9l-0,-698.187l-3013.54,-0l-0,698.187l3013.54,-0Z" style="fill:#fce3c9;"/><text x="4002.64px" y="15589px" style="font-family:'Lato-Bold', 'Lato', sans-serif;font-weight:700;font-size:240px;fill:#f69739;fill-opacity:0.5;">DOMAIN MODEL</text></g><g><path d="M9486.46,15848.9l0,-698.187l-3015.07,-0l-0,698.187l3015.07,-0Z" style="fill:#fce3c9;"/><text x="7016.94px" y="15589px" style="font-family:'Lato-Bold', 'Lato', sans-serif;font-weight:700;font-size:240px;fill:#f69739;fill-opacity:0.5;">DOMAIN MODEL</text></g><g><path d="M12500,15848.9l-0,-698.187l-3013.54,-0l0,698.187l3013.54,-0Z" style="fill:#fce3c9;"/><text x="10031.2px" y="15589px" style="font-family:'Lato-Bold', 'Lato', sans-serif;font-weight:700;font-size:240px;fill:#f69739;fill-opacity:0.5;">DOMAIN MODEL</text></g><g><path d="M15513.5,15848.9l-0,-698.187l-3013.54,-0l0,698.187l3013.54,-0Z" style="fill:#fce3c9;"/><text x="13044.8px" y="15589px" style="font-family:'Lato-Bold', 'Lato', sans-serif;font-weight:700;font-size:240px;fill:#f69739;fill-opacity:0.5;">DOMAIN MODEL</text></g><g><path d="M18527.1,15848.9l0,-698.187l-3013.54,-0l-0,698.187l3013.54,-0Z" style="fill:#fce3c9;"/><text x="16058.3px" y="15589px" style="font-family:'Lato-Bold', 'Lato', sans-serif;font-weight:700;font-size:240px;fill:#f69739;fill-opacity:0.5;">DOMAIN MODEL</text></g><g><path d="M21542.2,15848.9l0,-698.187l-3015.07,-0l0,698.187l3015.07,-0Z" style="fill:#fce3c9;"/><text x="19072.6px" y="15589px" style="font-family:'Lato-Bold', 'Lato', sans-serif;font-weight:700;font-size:240px;fill:#f69739;fill-opacity:0.5;">DOMAIN MODEL</text></g><g><path d="M24555.7,15848.9l-0,-698.187l-3013.54,-0l0,698.187l3013.54,-0Z" style="fill:#fce3c9;"/><text x="22086.9px" y="15589px" style="font-family:'Lato-Bold', 'Lato', sans-serif;font-weight:700;font-size:240px;fill:#f69739;fill-opacity:0.5;">DOMAIN MODEL</text></g><g><path d="M24555.7,15150.7l-0,-931.84l-12055.7,-0l-0,931.84l12055.7,-0Z" style="fill:#fbf1e8;"/><text x="17170.9px" y="14803.7px" style="font-family:'Lato-Bold', 'Lato', sans-serif;font-weight:700;font-size:320px;fill:#f4d9c4;">DOMAIN SERVICE</text></g><g><path d="M12500,15150.7l0,-931.84l-12055.7,-0l0,931.84l12055.7,-0Z" style="fill:#fbf1e8;"/><text x="5115.19px" y="14803.7px" style="font-family:'Lato-Bold', 'Lato', sans-serif;font-weight:700;font-size:320px;fill:#f4d9c4;">DOMAIN SERVICE</text></g></g><g><path d="M24555.7,14224.7l-0,-2616.67l-24111.4,-0l0,2616.67l24111.4,0Z" style="fill:#fdf9ed;"/><text x="9911.24px" y="13094.7px" style="font-family:'Lato-Bold', 'Lato', sans-serif;font-weight:700;font-size:480px;fill:#efc051;fill-opacity:0.3;">APPLICA<tspan x="11878.3px 12163.9px " y="13094.7px 13094.7px ">TI</tspan>ON SERVICE</text></g><g><path d="M204.574,3728.17l-0,-86.723l658.483,0l-0,-86.722l260.168,130.084l-260.168,130.084l-0,-86.723l-658.483,0Z" style="fill:#87f5bc;"/><path d="M204.574,2416.81l-0,-86.723l658.483,0l-0,-86.723l260.168,130.085l-260.168,130.084l-0,-86.723l-658.483,0Z" style="fill:#87f5bc;"/><path d="M204.574,4950.51l-0,-86.722l658.483,-0l-0,-86.723l260.168,130.084l-260.168,130.084l-0,-86.723l-658.483,0Z" style="fill:#87f5bc;"/><path d="M204.574,6345.16l-0,-86.723l658.483,-0l-0,-86.723l260.168,130.084l-260.168,130.085l-0,-86.723l-658.483,-0Z" style="fill:#87f5bc;"/><path d="M204.574,9530.95l-0,-86.723l658.483,-0l-0,-86.723l260.168,130.084l-260.168,130.085l-0,-86.723l-658.483,-0Z" style="fill:#87f5bc;"/><path d="M204.574,12959.7l-0,-86.723l658.483,0l-0,-86.722l260.168,130.084l-260.168,130.084l-0,-86.723l-658.483,0Z" style="fill:#87f5bc;"/><path d="M204.574,14728.2l-0,-86.723l658.483,0l-0,-86.723l260.168,130.085l-260.168,130.084l-0,-86.723l-658.483,0Z" style="fill:#87f5bc;"/></g><g><path d="M24795.6,14641.4l0,86.723l-658.483,0l0,86.723l-260.168,-130.084l260.168,-130.085l0,86.723l658.483,0Z" style="fill:#87f5bc;"/><path d="M24795.6,13009.3l0,86.722l-658.483,0l0,86.723l-260.168,-130.084l260.168,-130.084l0,86.723l658.483,-0Z" style="fill:#87f5bc;"/><path d="M24795.6,9444.23l0,86.723l-658.483,-0l0,86.723l-260.168,-130.085l260.168,-130.084l0,86.723l658.483,-0Z" style="fill:#87f5bc;"/><path d="M24795.6,6258.44l0,86.723l-658.483,-0l0,86.723l-260.168,-130.085l260.168,-130.084l0,86.723l658.483,-0Z" style="fill:#87f5bc;"/><path d="M24795.6,4859.62l0,86.723l-658.483,-0l0,86.723l-260.168,-130.085l260.168,-130.084l0,86.723l658.483,-0Z" style="fill:#87f5bc;"/><path d="M24795.6,3641.45l0,86.723l-658.483,0l0,86.723l-260.168,-130.084l260.168,-130.084l0,86.722l658.483,0Z" style="fill:#87f5bc;"/><path d="M24778.9,2330.09l0,86.723l-658.483,0l0,86.723l-260.168,-130.084l260.168,-130.085l0,86.723l658.483,0Z" style="fill:#87f5bc;"/></g><path d="M18484.5,6919.21l86.723,-0l0,658.483l86.723,0l-130.084,260.169l-130.084,-260.169l86.722,0l0,-658.483Z" style="fill:#87f5bc;"/><path d="M6206.64,6916.21l86.722,-0l0,658.483l86.723,0l-130.084,260.169l-130.084,-260.169l86.723,0l-0,-658.483Z" style="fill:#87f5bc;"/><path d="M17575.5,2373.45l-2736.71,-0" style="fill:none;stroke:#ec3c56;stroke-width:55.56px;"/><path d="M22190,2373.45l-2736.71,-0" style="fill:none;stroke:#ec3c56;stroke-width:55.56px;"/></svg>