<?xml version="1.0" encoding="UTF-8" standalone="no"?><!DOCTYPE svg PUBLIC "-//W3C//DTD SVG 1.1//EN" "http://www.w3.org/Graphics/SVG/1.1/DTD/svg11.dtd"><svg width="100%" height="100%" viewBox="0 0 25000 16250" version="1.1" xmlns="http://www.w3.org/2000/svg" xmlns:xlink="http://www.w3.org/1999/xlink" xml:space="preserve" xmlns:serif="http://www.serif.com/" style="fill-rule:evenodd;clip-rule:evenodd;stroke-linecap:square;stroke-linejoin:round;stroke-miterlimit:1.5;"><g id="Data-Flow-Chart" serif:id="Data Flow Chart"><rect id="User-Interface" serif:id="User Interface" x="1963.87" y="444.308" width="6369.47" height="15361.4" style="fill:#fbfcfd;"/><rect id="Core" x="8333.33" y="444.308" width="8333.33" height="15361.4" style="fill:#fefbf4;"/><rect id="Infrastructure" x="16666.7" y="444.308" width="6369.47" height="15361.4" style="fill:#fef2f4;"/><path d="M16687.5,0l-0,16250" style="fill:none;stroke:#ee5168;stroke-width:30.56px;"/><path d="M8350,0l0,16250" style="fill:none;stroke:#ee5168;stroke-width:27.78px;"/><g id="Infrastructure1" serif:id="Infrastructure"><g transform="matrix(3.12647e-17,1,-1,4.77305e-17,16759.3,-36862.8)"><text x="38022.6px" y="-4742.06px" style="font-family:'Lato-Bold', 'Lato', sans-serif;font-weight:700;font-size:1600px;fill:#f87089;fill-opacity:0.05;">INFRASTR<tspan x="45634.6px 46799.4px " y="-4742.06px -4742.06px ">UC</tspan>TURE</text></g><g><g><rect x="18190.8" y="1293.32" width="2007.31" height="13809.7" style="fill:#fdeafb;stroke:#d282d3;stroke-width:13.89px;stroke-dasharray:69.44,69.44,0,0;"/><g transform="matrix(4.14207e-17,1,-1,9.052e-17,21683.8,-24567.1)"><text x="29653.1px" y="2258.96px" style="font-family:'Lato-Bold', 'Lato', sans-serif;font-weight:700;font-size:533.333px;fill:#d5a6d0;fill-opacity:0.5;">FUNCTIONALITY GR<tspan x="34729.4px 35155.8px " y="2258.96px 2258.96px ">OU</tspan>P</text></g></g><g><rect x="18417.5" y="2099.42" width="630.344" height="12021.1" style="fill:#fbf2fe;stroke:#d282d3;stroke-width:13.89px;"/><g transform="matrix(2.02651e-17,1,-1,1.85017e-16,19830.7,-23384.6)"><text x="30431.8px" y="1197.13px" style="font-family:'Lato-Bold', 'Lato', sans-serif;font-weight:700;font-size:266.667px;fill:#bb20ee;fill-opacity:0.3;">FUNCTIONALITY</text></g></g></g><g><g><g transform="matrix(2.55135e-16,4.16667,-4.16667,2.55135e-16,26291.3,5106.27)"><text x="1041.02px" y="1389.06px" style="font-family:'Lato-Regular', 'Lato', sans-serif;font-size:32px;fill:#f17184;">D<tspan x="1064.45px 1084.1px 1100.86px 1122.62px " y="1389.06px 1389.06px 1389.06px 1389.06px ">ATA </tspan>SOUR<tspan x="1214.53px 1236.45px " y="1389.06px 1389.06px ">CE</tspan></text><text x="1035.63px" y="1437.06px" style="font-family:'Lato-Regular', 'Lato', sans-serif;font-size:32px;fill:#f17184;">RETURNS D<tspan x="1208.43px 1228.08px " y="1437.06px 1437.06px ">AT</tspan>A</text></g><g transform="matrix(2.55135e-16,4.16667,-4.16667,2.55135e-16,26291.3,1098.11)"><text x="1021.73px" y="1389.06px" style="font-family:'Lato-Regular', 'Lato', sans-serif;font-size:32px;fill:#f17184;">SA<tspan x="1058.27px 1080.03px " y="1389.06px 1389.06px ">VI</tspan>NG T<tspan x="1161.02px 1186.56px 1192.74px 1216.16px 1235.81px " y="1389.06px 1389.06px 1389.06px 1389.06px 1389.06px ">O DAT</tspan>A</text><text x="1088px" y="1437.06px" style="font-family:'Lato-Regular', 'Lato', sans-serif;font-size:32px;fill:#f17184;">SOUR<tspan x="1173.73px 1195.65px " y="1437.06px 1437.06px ">CE</tspan></text></g><path d="M21115.7,5112.86l77.861,-0l-0,1303.83l77.861,0l-116.792,233.583l-116.791,-233.583l77.861,0l-0,-1303.83Z" style="fill:#87f5bc;"/><path d="M21115.7,9121.02l77.861,0l-0,1303.83l77.861,-0l-116.792,233.583l-116.791,-233.583l77.861,-0l-0,-1303.83Z" style="fill:#87f5bc;"/><path d="M21184.7,7886.32l-473.095,-0" style="fill:none;stroke:#ec3c56;stroke-width:55.56px;"/><path d="M20224.5,4138.98l484.007,0" style="fill:none;stroke:#ec3c56;stroke-width:55.56px;"/><path d="M20224.5,12079.9l484.007,-0" style="fill:none;stroke:#ec3c56;stroke-width:55.56px;"/><path d="M20708.5,12079.9l0,-7940.89" style="fill:none;stroke:#ec3c56;stroke-width:55.56px;"/><g><circle cx="20198.1" cy="4138.98" r="117.188" style="fill:#fce3e7;"/><path d="M20198.1,3982.73c86.236,0 156.25,70.014 156.25,156.25c-0,86.237 -70.014,156.25 -156.25,156.25c-86.237,0 -156.25,-70.013 -156.25,-156.25c-0,-86.236 70.013,-156.25 156.25,-156.25Zm-0,39.063c64.677,-0 117.187,52.51 117.187,117.187c0,64.678 -52.51,117.188 -117.187,117.188c-64.678,-0 -117.188,-52.51 -117.188,-117.188c0,-64.677 52.51,-117.187 117.188,-117.187Z" style="fill:#ec3c56;"/><circle cx="20198.1" cy="4138.98" r="83.806" style="fill:#ec3c56;"/></g><g><circle cx="20198.1" cy="12079.9" r="117.187" style="fill:#fce3e7;"/><path d="M20198.1,11923.6c86.236,-0 156.25,70.013 156.25,156.25c-0,86.236 -70.014,156.25 -156.25,156.25c-86.237,-0 -156.25,-70.014 -156.25,-156.25c-0,-86.237 70.013,-156.25 156.25,-156.25Zm-0,39.062c64.677,0 117.187,52.51 117.187,117.188c0,64.677 -52.51,117.187 -117.187,117.187c-64.678,0 -117.188,-52.51 -117.188,-117.187c0,-64.678 52.51,-117.188 117.188,-117.188Z" style="fill:#ec3c56;"/><circle cx="20198.1" cy="12079.9" r="83.806" style="fill:#ec3c56;"/></g></g><g><g><path d="M22137.5,9297.57c0,-22.996 -18.67,-41.666 -41.666,-41.666c-22.997,-0 -41.667,18.67 -41.667,41.666c0,22.997 18.67,41.667 41.667,41.667c22.996,-0 41.666,-18.67 41.666,-41.667Z" style="fill:#ec3c56;"/><path d="M22137.5,9130.91c0,-22.997 -18.67,-41.667 -41.666,-41.667c-22.997,-0 -41.667,18.67 -41.667,41.667c0,22.996 18.67,41.666 41.667,41.666c22.996,0 41.666,-18.67 41.666,-41.666Z" style="fill:#ec3c56;"/><path d="M22137.5,8964.24c0,-22.997 -18.67,-41.667 -41.666,-41.667c-22.997,0 -41.667,18.67 -41.667,41.667c0,22.996 18.67,41.667 41.667,41.667c22.996,-0 41.666,-18.671 41.666,-41.667Z" style="fill:#ec3c56;"/></g><g><path d="M22137.5,7139.41c0,-22.996 -18.67,-41.666 -41.666,-41.666c-22.997,-0 -41.667,18.67 -41.667,41.666c0,22.997 18.67,41.667 41.667,41.667c22.996,0 41.666,-18.67 41.666,-41.667Z" style="fill:#ec3c56;"/><path d="M22137.5,6972.74c0,-22.997 -18.67,-41.667 -41.666,-41.667c-22.997,0 -41.667,18.67 -41.667,41.667c0,22.996 18.67,41.666 41.667,41.666c22.996,0 41.666,-18.67 41.666,-41.666Z" style="fill:#ec3c56;"/><path d="M22137.5,6806.08c0,-22.996 -18.67,-41.667 -41.666,-41.667c-22.997,0 -41.667,18.671 -41.667,41.667c0,22.997 18.67,41.667 41.667,41.667c22.996,-0 41.666,-18.67 41.666,-41.667Z" style="fill:#ec3c56;"/></g><g><g><g><path d="M22417.2,7551.28c-0,-11.727 -9.521,-21.247 -21.247,-21.247l-600.29,0c-11.727,0 -21.247,9.52 -21.247,21.247l-0,165.84c-0,11.726 9.52,21.246 21.247,21.246l600.29,0c11.726,0 21.247,-9.52 21.247,-21.246l-0,-165.84Z" style="fill:#ec3c56;"/></g><g><path d="M22417.2,7801.28c-0,-11.727 -9.521,-21.247 -21.247,-21.247l-600.29,0c-11.727,0 -21.247,9.52 -21.247,21.247l-0,165.84c-0,11.726 9.52,21.246 21.247,21.246l600.29,0c11.726,0 21.247,-9.52 21.247,-21.246l-0,-165.84Z" style="fill:#ec3c56;"/></g><g><path d="M22417.2,8051.28c-0,-11.727 -9.521,-21.247 -21.247,-21.247l-600.29,0c-11.727,0 -21.247,9.52 -21.247,21.247l-0,165.84c-0,11.726 9.52,21.246 21.247,21.246l600.29,0c11.726,0 21.247,-9.52 21.247,-21.246l-0,-165.84Z" style="fill:#ec3c56;"/></g></g><text x="21909.3px" y="8561.87px" style="font-family:'Lato-Bold', 'Lato', sans-serif;font-weight:700;font-size:266.667px;fill:#ec3c56;">DB</text></g></g></g><path d="M18034.5,12085l-1309.73,-0" style="fill:none;stroke:#d282d3;stroke-width:55.56px;"/><path d="M16724.8,4127.71l1309.73,0" style="fill:none;stroke:#d282d3;stroke-width:55.56px;"/><g><circle cx="18190.8" cy="4138.98" r="156.25" style="fill:#d282d3;"/><circle cx="18190.8" cy="4138.98" r="134.87" style="fill:#fbfcfd;"/><circle cx="18190.8" cy="4138.98" r="96.784" style="fill:#d282d3;"/></g><g><circle cx="18190.8" cy="12085" r="156.25" style="fill:#d282d3;"/><circle cx="18190.8" cy="12085" r="134.87" style="fill:#fbfcfd;"/><circle cx="18190.8" cy="12085" r="96.784" style="fill:#d282d3;"/></g><g id="Infrastructure-messages" serif:id="Infrastructure messages"><g id="UI-Info-Block" serif:id="UI Info Block"><rect x="15643.2" y="3097.38" width="2046.88" height="409.26" style="fill:#f9eefc;"/><g transform="matrix(4.16667,0,0,4.16667,15232.1,-5883.11)"><text x="111.518px" y="2183.99px" style="font-family:'Lato-Regular', 'Lato', sans-serif;font-size:20px;fill:#d37df0;">As an argument to speciﬁc functionality  pro<tspan x="492.258px 502.498px " y="2183.99px 2183.99px ">vi</tspan>de</text><text x="111.518px" y="2211.79px" style="font-family:'Lato-Regular', 'Lato', sans-serif;font-size:20px;fill:#d37df0;">instance of  Request Object  ( do not reuse</text><text x="111.518px" y="2239.6px" style="font-family:'Lato-Regular', 'Lato', sans-serif;font-size:20px;fill:#d37df0;">Application Service Request Object )</text></g></g><g id="UI-Info-Block1" serif:id="UI Info Block"><rect x="15643.2" y="13057.7" width="2046.88" height="322.654" style="fill:#f9eefc;"/><g transform="matrix(4.16667,0,0,4.16667,15232.1,4091.79)"><text x="111.518px" y="2183.99px" style="font-family:'Lato-Regular', 'Lato', sans-serif;font-size:20px;fill:#d37df0;">Infr<tspan x="143.198px 153.338px " y="2183.99px 2183.99px ">as</tspan>tructure returns mapped data to Domain Model</text><text x="111.518px" y="2211.79px" style="font-family:'Lato-Regular', 'Lato', sans-serif;font-size:20px;fill:#d37df0;">from an<tspan x="178.658px 188.898px " y="2211.79px 2211.79px ">y </tspan>type of source ( our e<tspan x="374.458px 384.438px 394.918px " y="2211.79px 2211.79px 2211.79px ">ven</tspan> combined sources )</text></g></g><g id="App-Services-Info-Block" serif:id="App Services Info Block"><rect x="19393.9" y="1847.65" width="2004.33" height="609.051" style="fill:#f9eefc;"/><g transform="matrix(4.16667,0,0,4.16667,18988.7,-7116.75)"><text x="111.518px" y="2186.94px" style="font-family:'Lato-Regular', 'Lato', sans-serif;font-size:24px;fill:#d37df0;">Giv<tspan x="147.254px 159.83px " y="2186.94px 2186.94px ">en</tspan> functionality depending on</text><text x="111.518px" y="2217.9px" style="font-family:'Lato-Regular', 'Lato', sans-serif;font-size:24px;fill:#d37df0;">implementation contains it&apos;s own models.</text><text x="111.518px" y="2248.86px" style="font-family:'Lato-Regular', 'Lato', sans-serif;font-size:24px;fill:#d37df0;">It can be entities,  or an<tspan x="350.678px 362.966px " y="2248.86px 2248.86px ">y </tspan>other objects</text><text x="111.518px" y="2279.83px" style="font-family:'Lato-Regular', 'Lato', sans-serif;font-size:24px;fill:#d37df0;">related to speciﬁc data source structure</text></g></g><g id="Infra-Info-Block" serif:id="Infra Info Block"><rect x="18189.8" y="628.584" width="3323.13" height="399.738" style="fill:#fbdae0;"/><g transform="matrix(4.16667,0,0,4.16667,17824.9,-8311.47)"><text x="111.518px" y="2186.94px" style="font-family:'Lato-Regular', 'Lato', sans-serif;font-size:24px;fill:#f17184;">Infr<tspan x="149.534px 161.702px " y="2186.94px 2186.94px ">as</tspan>tructure ha<tspan x="289.598px 301.574px 314.15px " y="2186.94px 2186.94px 2186.94px ">ve </tspan>access only to Core La<tspan x="548.87px 560.846px 573.422px 581.51px 586.598px " y="2186.94px 2186.94px 2186.94px 2186.94px 2186.94px ">yer, </tspan>do no ha<tspan x="679.07px 691.046px 703.622px " y="2186.94px 2186.94px 2186.94px ">ve </tspan>access to UI</text><text x="111.518px" y="2217.9px" style="font-family:'Lato-Regular', 'Lato', sans-serif;font-size:24px;fill:#f17184;">la<tspan x="129.446px 141.422px 153.998px " y="2217.9px 2217.9px 2217.9px ">yer</tspan> and it&apos;s dependencies</text></g></g><g id="Infra-Info-Block1" serif:id="Infra Info Block"><rect x="19262.1" y="12560.8" width="3491.73" height="481.111" style="fill:#fbdae0;"/><g transform="matrix(4.16667,0,0,4.16667,18841.7,3596.97)"><text x="111.518px" y="2186.94px" style="font-family:'Lato-Regular', 'Lato', sans-serif;font-size:24px;fill:#f17184;">Infr<tspan x="149.534px 161.702px " y="2186.94px 2186.94px ">as</tspan>tructure la<tspan x="282.398px 294.374px 306.95px " y="2186.94px 2186.94px 2186.94px ">yer</tspan> deﬁnes mappers for domain models for an<tspan x="757.142px 769.43px " y="2186.94px 2186.94px ">y </tspan>type of the</text><text x="111.518px" y="2217.9px" style="font-family:'Lato-Regular', 'Lato', sans-serif;font-size:24px;fill:#f17184;">data source. Example: UserRepository returns User Domain Model which is</text><text x="111.518px" y="2248.86px" style="font-family:'Lato-Regular', 'Lato', sans-serif;font-size:24px;fill:#f17184;">tr<tspan x="129.686px 141.854px " y="2248.86px 2248.86px ">an</tspan>slated data from User Entity ( assuming that data source is DB</text></g></g><g id="Infra-Info-Block2" serif:id="Infra Info Block"><rect x="19312.1" y="3307.27" width="1771.83" height="531.213" style="fill:#fbdae0;"/><g transform="matrix(4.16667,0,0,4.16667,18903,-5670.17)"><text x="111.518px" y="2183.99px" style="font-family:'Lato-Regular', 'Lato', sans-serif;font-size:20px;fill:#f17184;">F<tspan x="122.138px 133.258px " y="2183.99px 2183.99px ">or</tspan> speciﬁc data source, y<tspan x="334.098px 345.218px " y="2183.99px 2183.99px ">ou</tspan> use data from</text><text x="111.518px" y="2211.79px" style="font-family:'Lato-Regular', 'Lato', sans-serif;font-size:20px;fill:#f17184;">Request Object and  tr<tspan x="306.318px 316.458px " y="2211.79px 2211.79px ">an</tspan>slate to speciﬁc data</text><text x="111.518px" y="2239.6px" style="font-family:'Lato-Regular', 'Lato', sans-serif;font-size:20px;fill:#f17184;">input format ( data for queries, entities, ﬁles,</text><text x="111.518px" y="2267.4px" style="font-family:'Lato-Regular', 'Lato', sans-serif;font-size:20px;fill:#f17184;">e<tspan x="121.398px 131.478px " y="2267.4px 2267.4px ">xt</tspan>ernal services etc.)</text></g></g></g></g><g id="External-Internal-Source" serif:id="External/Internal Source"><rect x="23480.4" y="0" width="1519.56" height="16250" style="fill:#f27688;"/><g transform="matrix(6.12323e-17,1,-1,6.12323e-17,27338.6,-28222.3)"><text x="33392.5px" y="3246.98px" style="font-family:'Lato-Bold', 'Lato', sans-serif;font-weight:700;font-size:400px;fill:#fce3e7;">EXTERNAL  ST<tspan x="36006.7px 36326.5px 36588.5px 36862.3px 37151.5px " y="3246.98px 3246.98px 3246.98px 3246.98px 3246.98px ">ORAGE</tspan> / SERVICE</text></g></g><g id="Core1" serif:id="Core"><path d="M12408.2,12085l-4058.22,-0" style="fill:none;stroke:#facea6;stroke-width:55.56px;"/><path d="M16666.7,12085l-4221.84,-0" style="fill:none;stroke:#facea6;stroke-width:55.56px;"/><path d="M12444.8,4130.41l4221.84,-0" style="fill:none;stroke:#facea6;stroke-width:55.56px;"/><path d="M8386.6,4134.57l4058.22,0" style="fill:none;stroke:#facea6;stroke-width:55.56px;"/><g><rect x="10445.7" y="2790.8" width="4108.59" height="10668.4" style="fill:#fefbf4;stroke:#ee5168;stroke-width:13.89px;stroke-dasharray:69.44,69.44,0,0;"/><g><rect x="13468" y="3413.54" width="698.187" height="2172.87" style="fill:#fce3c9;stroke:#ee5168;stroke-width:13.89px;"/><g transform="matrix(3.35346e-17,-1,1,1.11807e-16,-3884.67,29445.2)"><text x="23983.3px" y="17790.9px" style="font-family:'Lato-Bold', 'Lato', sans-serif;font-weight:700;font-size:240px;fill:#f69739;fill-opacity:0.5;">DOMAIN MODEL</text></g></g><g><rect x="13468" y="5784.16" width="698.187" height="2172.87" style="fill:#fce3c9;stroke:#ee5168;stroke-width:13.89px;"/><g transform="matrix(3.35346e-17,-1,1,1.11807e-16,-6255.3,31815.8)"><text x="23983.3px" y="20161.5px" style="font-family:'Lato-Bold', 'Lato', sans-serif;font-weight:700;font-size:240px;fill:#f69739;fill-opacity:0.5;">DOMAIN MODEL</text></g></g><g><rect x="13468" y="8179.72" width="698.187" height="2172.87" style="fill:#fce3c9;stroke:#ee5168;stroke-width:13.89px;"/><g transform="matrix(3.35346e-17,-1,1,1.11807e-16,-8650.85,34211.4)"><text x="23983.3px" y="22557.1px" style="font-family:'Lato-Bold', 'Lato', sans-serif;font-weight:700;font-size:240px;fill:#f69739;fill-opacity:0.5;">DOMAIN MODEL</text></g></g><g><rect x="13484.2" y="10550.3" width="698.187" height="2172.87" style="fill:#fce3c9;stroke:#ee5168;stroke-width:13.89px;"/><g transform="matrix(3.35346e-17,-1,1,1.11807e-16,-11005.3,36598.2)"><text x="23999.5px" y="24927.7px" style="font-family:'Lato-Bold', 'Lato', sans-serif;font-weight:700;font-size:240px;fill:#f69739;fill-opacity:0.5;">DOMAIN MODEL</text></g></g><g><rect x="12144.7" y="3413.54" width="931.84" height="4543.5" style="fill:#fbf1e8;stroke:#ee5168;stroke-width:13.89px;"/><g transform="matrix(7.92622e-17,-1,1,4.73038e-17,-3535.76,21681.6)"><text x="14639.3px" y="16265.3px" style="font-family:'Lato-Bold', 'Lato', sans-serif;font-weight:700;font-size:320px;fill:#f4d9c4;">DOMAIN SERVICE</text></g></g><g><rect x="12144.7" y="8179.72" width="931.84" height="4543.5" style="fill:#fbf1e8;stroke:#ee5168;stroke-width:13.89px;"/><g transform="matrix(7.92622e-17,-1,1,4.73038e-17,-8301.94,26447.8)"><text x="14639.3px" y="21031.5px" style="font-family:'Lato-Bold', 'Lato', sans-serif;font-weight:700;font-size:320px;fill:#f4d9c4;">DOMAIN SERVICE</text></g></g><g><rect x="10823.5" y="3413.54" width="931.84" height="9309.68" style="fill:#fdf9ed;stroke:#ee5168;stroke-width:13.89px;"/><g transform="matrix(7.78049e-17,-1,1,7.98618e-17,-20079.3,32216.4)"><text x="21559.3px" y="31547px" style="font-family:'Lato-Bold', 'Lato', sans-serif;font-weight:700;font-size:480px;fill:#efc051;fill-opacity:0.3;">APPLICA<tspan x="23526.3px 23811.9px " y="31547px 31547px ">TI</tspan>ON SERVICE</text></g></g></g><text x="9910.4px" y="2582.38px" style="font-family:'Lato-Bold', 'Lato', sans-serif;font-weight:700;font-size:1920px;fill:#efc051;fill-opacity:0.1;">CORE</text><g><circle cx="16687.5" cy="4138.98" r="156.25" style="fill:#d282d3;"/><circle cx="16687.5" cy="4138.98" r="134.87" style="fill:#fbfcfd;"/><circle cx="16687.5" cy="4138.98" r="96.784" style="fill:#d282d3;"/></g><g><circle cx="16687.5" cy="12085" r="156.25" style="fill:#d282d3;"/><circle cx="16687.5" cy="12085" r="134.87" style="fill:#fbfcfd;"/><circle cx="16687.5" cy="12085" r="96.784" style="fill:#d282d3;"/></g><g id="Core-Messages" serif:id="Core Messages"><g id="UI-Info-Block2" serif:id="UI Info Block"><rect x="7309.89" y="13057.7" width="2046.88" height="322.654" style="fill:#fcf4e3;"/><g transform="matrix(4.16667,0,0,4.16667,6898.74,4091.79)"><text x="111.518px" y="2183.99px" style="font-family:'Lato-Regular', 'Lato', sans-serif;font-size:20px;fill:#ecb32d;">Core La<tspan x="178.838px 188.818px 199.298px " y="2183.99px 2183.99px 2183.99px ">yer</tspan> ( speciﬁc service method ) returns result</text><text x="111.518px" y="2211.79px" style="font-family:'Lato-Regular', 'Lato', sans-serif;font-size:20px;fill:#ecb32d;">of business logic in form of Domain Model</text></g></g><g id="App-Services-Info-Block1" serif:id="App Services Info Block"><rect x="14285.4" y="5213.87" width="2004.33" height="757.41" style="fill:#fcf4e3;"/><g transform="matrix(4.16667,0,0,4.16667,13880.2,-3740.86)"><text x="111.518px" y="2186.94px" style="font-family:'Lato-Regular', 'Lato', sans-serif;font-size:24px;fill:#ecb32d;">Domain model is a business model related</text><text x="111.518px" y="2217.9px" style="font-family:'Lato-Regular', 'Lato', sans-serif;font-size:24px;fill:#ecb32d;">to</text><text x="139.166px" y="2217.9px" style="font-family:'Lato-Regular', 'Lato', sans-serif;font-size:24px;fill:#ecb32d;">speciﬁc domain. Do not add here an<tspan x="507.998px 520.286px " y="2217.9px 2217.9px ">y </tspan>ui</text><text x="111.518px" y="2248.86px" style="font-family:'Lato-Regular', 'Lato', sans-serif;font-size:24px;fill:#ecb32d;">related ﬁelds. If y<tspan x="289.67px 303.014px " y="2248.86px 2248.86px ">ou</tspan> need to do it then</text><text x="111.518px" y="2279.83px" style="font-family:'Lato-Regular', 'Lato', sans-serif;font-size:24px;fill:#ecb32d;">deﬁne UI Model and tr<tspan x="345.182px 357.35px " y="2279.83px 2279.83px ">an</tspan>slate domain</text><text x="111.518px" y="2310.79px" style="font-family:'Lato-Regular', 'Lato', sans-serif;font-size:24px;fill:#ecb32d;">model to UI Model with use of Mapper</text></g></g><g id="App-Services-Info-Block2" serif:id="App Services Info Block"><rect x="11218.1" y="12958.4" width="2737.31" height="1001.7" style="fill:#fcf4e3;"/><g transform="matrix(4.16667,0,0,4.16667,10806.4,3996.75)"><text x="111.518px" y="2186.94px" style="font-family:'Lato-Regular', 'Lato', sans-serif;font-size:24px;fill:#ecb32d;">Domain Service is an abstr<tspan x="386.246px 398.414px " y="2186.94px 2186.94px ">ac</tspan>tion o<tspan x="469.07px 481.046px 493.622px " y="2186.94px 2186.94px 2186.94px ">ver</tspan> functionality of</text><text x="111.518px" y="2217.9px" style="font-family:'Lato-Regular', 'Lato', sans-serif;font-size:24px;fill:#ecb32d;">infr<tspan x="148.31px 160.478px " y="2217.9px 2217.9px ">as</tspan>tructure and has it&apos;s request objects. F<tspan x="567.086px 580.43px " y="2217.9px 2217.9px ">or</tspan> e<tspan x="606.59px 618.686px " y="2217.9px 2217.9px ">xa</tspan>mple y<tspan x="699.134px 712.478px " y="2217.9px 2217.9px ">ou</tspan></text><text x="111.518px" y="2248.86px" style="font-family:'Lato-Regular', 'Lato', sans-serif;font-size:24px;fill:#ecb32d;">ha<tspan x="136.646px 148.622px 161.198px " y="2248.86px 2248.86px 2248.86px ">ve </tspan>a User service and y<tspan x="372.494px 385.838px " y="2248.86px 2248.86px ">ou</tspan> want to fetch user from some</text><text x="111.518px" y="2279.83px" style="font-family:'Lato-Regular', 'Lato', sans-serif;font-size:24px;fill:#ecb32d;">data source ( but from domain perspectiv<tspan x="538.43px 551.006px " y="2279.83px 2279.83px ">e </tspan>it doesn<tspan x="637.598px 643.118px " y="2279.83px 2279.83px ">&apos;t</tspan> matter</text><text x="111.518px" y="2310.79px" style="font-family:'Lato-Regular', 'Lato', sans-serif;font-size:24px;fill:#ecb32d;">from what data source ). Y<tspan x="381.062px 394.406px " y="2310.79px 2310.79px ">ou</tspan> deﬁne simply UserRepository</text><text x="111.518px" y="2341.75px" style="font-family:'Lato-Regular', 'Lato', sans-serif;font-size:24px;fill:#ecb32d;">interface with it&apos;s own Request Object and it doesn<tspan x="640.622px 646.142px " y="2341.75px 2341.75px ">&apos;t</tspan> matter</text><text x="111.518px" y="2372.71px" style="font-family:'Lato-Regular', 'Lato', sans-serif;font-size:24px;fill:#ecb32d;">what datasource will implement it ( Database, File, etc )</text></g></g><g id="App-Services-Info-Block3" serif:id="App Services Info Block"><rect x="11131.3" y="628.584" width="2737.31" height="399.738" style="fill:#fcf4e3;"/><g transform="matrix(4.16667,0,0,4.16667,10719.6,-8311.47)"><text x="111.518px" y="2186.94px" style="font-family:'Lato-Regular', 'Lato', sans-serif;font-size:24px;fill:#ecb32d;">Core La<tspan x="192.302px 204.278px 216.854px " y="2186.94px 2186.94px 2186.94px ">yer</tspan> do not ha<tspan x="327.95px 339.926px 352.502px " y="2186.94px 2186.94px 2186.94px ">ve </tspan>access to UI and Infr<tspan x="567.782px 579.95px " y="2186.94px 2186.94px ">as</tspan>tructure. It&apos;s</text><text x="111.518px" y="2217.9px" style="font-family:'Lato-Regular', 'Lato', sans-serif;font-size:24px;fill:#ecb32d;">fully independent la<tspan x="317.654px 329.63px 342.206px " y="2217.9px 2217.9px 2217.9px ">yer</tspan> contains only business logic</text></g></g><g id="App-Services-Info-Block4" serif:id="App Services Info Block"><rect x="9074.03" y="4376.8" width="1998.38" height="888.217" style="fill:#fcf4e3;"/><g transform="matrix(4.16667,0,0,4.16667,8699.69,-4577.04)"><text x="111.518px" y="2186.94px" style="font-family:'Lato-Regular', 'Lato', sans-serif;font-size:24px;fill:#ecb32d;">Application service contains  multiple</text><text x="111.518px" y="2217.9px" style="font-family:'Lato-Regular', 'Lato', sans-serif;font-size:24px;fill:#ecb32d;">domain services which are injected b<tspan x="492.35px 504.638px " y="2217.9px 2217.9px ">y </tspan>DI.</text><text x="111.518px" y="2248.86px" style="font-family:'Lato-Regular', 'Lato', sans-serif;font-size:24px;fill:#ecb32d;">It has business logic in conte<tspan x="404.294px 416.39px " y="2248.86px 2248.86px ">xt</tspan> of speciﬁc</text><text x="111.518px" y="2279.83px" style="font-family:'Lato-Regular', 'Lato', sans-serif;font-size:24px;fill:#ecb32d;">domain. F<tspan x="212.102px 225.446px " y="2279.83px 2279.83px ">or</tspan> e<tspan x="252.014px 263.99px 276.566px " y="2279.83px 2279.83px 2279.83px ">ver</tspan>y method y<tspan x="401.102px 414.446px " y="2279.83px 2279.83px ">ou</tspan> deﬁne</text><text x="111.518px" y="2310.79px" style="font-family:'Lato-Regular', 'Lato', sans-serif;font-size:24px;fill:#ecb32d;">Request Object as a clear deﬁnition of</text><text x="111.518px" y="2341.75px" style="font-family:'Lato-Regular', 'Lato', sans-serif;font-size:24px;fill:#ecb32d;">input</text></g></g></g><g transform="matrix(4.16667,0,0,4.16667,11883.2,-1237.35)"><text x="1062.88px" y="1384.56px" style="font-family:'Lato-Regular', 'Lato', sans-serif;font-size:32px;fill:#ecb32d;">CORE ASKS</text><text x="1012.62px" y="1432.56px" style="font-family:'Lato-Regular', 'Lato', sans-serif;font-size:32px;fill:#ecb32d;">INFRASTR<tspan x="1162.89px 1186.26px " y="1432.56px 1432.56px ">UC</tspan>TURE</text><text x="987.679px" y="1480.56px" style="font-family:'Lato-Regular', 'Lato', sans-serif;font-size:32px;fill:#ecb32d;">( THR<tspan x="1066.4px 1091.93px " y="1480.56px 1480.56px ">OU</tspan>GH F<tspan x="1185.15px 1206.24px 1228.16px " y="1480.56px 1480.56px 1480.56px ">ACA</tspan>DE )</text></g><g transform="matrix(4.16667,0,0,4.16667,3549.87,5709.31)"><text x="1030.02px" y="1384.56px" style="font-family:'Lato-Regular', 'Lato', sans-serif;font-size:32px;fill:#ecb32d;">CORE RETURNS</text><text x="1026.29px" y="1432.56px" style="font-family:'Lato-Regular', 'Lato', sans-serif;font-size:32px;fill:#ecb32d;">BUSINESS L<tspan x="1195.18px 1220.72px " y="1432.56px 1432.56px ">OG</tspan>IC</text><text x="1091.98px" y="1480.56px" style="font-family:'Lato-Regular', 'Lato', sans-serif;font-size:32px;fill:#ecb32d;">RESUL<tspan x="1185.2px " y="1480.56px ">T</tspan></text></g><path d="M15898,3797.39l-0,-77.861l1303.83,0l0,-77.861l233.583,116.792l-233.583,116.791l0,-77.861l-1303.83,0Z" style="fill:#87f5bc;"/><path d="M17435.4,12458.1l0,77.861l-1303.83,0l-0,77.861l-233.583,-116.791l233.583,-116.792l-0,77.861l1303.83,0Z" style="fill:#87f5bc;"/></g><g id="External-Internal-User" serif:id="External/Internal User"><rect x="0" y="0" width="1519.56" height="16250" style="fill:#525a6c;"/><g transform="matrix(6.12323e-17,-1,1,6.12323e-17,-19472.3,13911.4)"><text x="3107.6px" y="20380.7px" style="font-family:'Lato-Bold', 'Lato', sans-serif;font-weight:700;font-size:400px;fill:#e8eaee;">INTERNAL \ EXTERNAL USER</text></g></g><g id="UI-" serif:id="UI "><g transform="matrix(9.23273e-17,-1,1,7.42447e-17,-27859.4,24237.3)"><text x="9717.85px" y="31358px" style="font-family:'Lato-Bold', 'Lato', sans-serif;font-weight:700;font-size:1600px;fill:#87a9ca;fill-opacity:0.1;">USER INTERF<tspan x="19422.7px 20517.9px 21590.7px " y="31358px 31358px 31358px ">ACE</tspan></text></g><g><g><rect x="4815.27" y="1293.32" width="2004.17" height="13809.7" style="fill:#f3f2fe;stroke:#525a6c;stroke-width:13.89px;stroke-dasharray:69.44,69.44,0,0;"/><g transform="matrix(4.13558e-17,-1,1,9.06619e-17,-15950.1,19725.9)"><text x="8897.57px" y="21537.7px" style="font-family:'Lato-Bold', 'Lato', sans-serif;font-weight:700;font-size:533.333px;fill:#48669d;fill-opacity:0.5;">BOUNDED CONTEXT</text></g></g><g><rect x="5963.65" y="2129.51" width="629.357" height="11991" style="fill:#f2f8fe;stroke:#9cc1f3;stroke-width:13.89px;"/><g transform="matrix(2.02842e-17,-1,1,1.84843e-16,-14593,21400.7)"><text x="12708.1px" y="20970.4px" style="font-family:'Lato-Bold', 'Lato', sans-serif;font-weight:700;font-size:266.667px;fill:#1280e7;fill-opacity:0.5;">DOMAIN</text></g></g></g><g><g><path d="M3996.22,10658.4l-77.861,-0l-0,-1303.83l-77.861,0l116.791,-233.583l116.792,233.583l-77.861,0l-0,1303.83Z" style="fill:#87f5bc;"/><path d="M3996.22,6650.28l-77.861,0l-0,-1303.83l-77.861,-0l116.791,-233.583l116.792,233.583l-77.861,-0l-0,1303.83Z" style="fill:#87f5bc;"/><g transform="matrix(6.12323e-17,-1,1,6.12323e-17,-11927.3,9402.72)"><text x="2934.28px" y="16552.8px" style="font-family:'Lato-Regular', 'Lato', sans-serif;font-size:133.333px;fill:#5f78b2;">CLIENT  REQUESTS</text></g><g transform="matrix(6.12323e-17,-1,1,6.12323e-17,-15935.5,13410.9)"><text x="2904.55px" y="20560.9px" style="font-family:'Lato-Regular', 'Lato', sans-serif;font-size:133.333px;fill:#5f78b2;">SERVER  RESPONDS</text></g><path d="M4792.34,4138.03l-461.703,-0" style="fill:none;stroke:#525a6c;stroke-width:55.56px;"/><path d="M4792.34,12085l-461.703,-0" style="fill:none;stroke:#525a6c;stroke-width:55.56px;"/><path d="M4330.64,7893.69l-473.704,-0" style="fill:none;stroke:#525a6c;stroke-width:55.56px;"/><path d="M4330.64,12085l0,-7947" style="fill:none;stroke:#525a6c;stroke-width:55.56px;"/><g><circle cx="4815.27" cy="4138.03" r="117.188" style="fill:#f0f2f7;"/><path d="M4815.27,3981.78c86.236,-0 156.25,70.013 156.25,156.25c-0,86.236 -70.014,156.25 -156.25,156.25c-86.237,-0 -156.25,-70.014 -156.25,-156.25c-0,-86.237 70.013,-156.25 156.25,-156.25Zm-0,39.062c64.677,0 117.187,52.51 117.187,117.188c0,64.677 -52.51,117.187 -117.187,117.187c-64.678,0 -117.188,-52.51 -117.188,-117.187c0,-64.678 52.51,-117.188 117.188,-117.188Z" style="fill:#1d263d;"/><circle cx="4815.27" cy="4138.03" r="83.806" style="fill:#1d263d;"/></g><g><circle cx="4815.27" cy="12085" r="117.188" style="fill:#f0f2f7;"/><path d="M4815.27,11928.8c86.236,-0 156.25,70.013 156.25,156.25c-0,86.237 -70.014,156.25 -156.25,156.25c-86.237,-0 -156.25,-70.013 -156.25,-156.25c-0,-86.237 70.013,-156.25 156.25,-156.25Zm-0,39.062c64.677,0 117.187,52.51 117.187,117.188c0,64.677 -52.51,117.187 -117.187,117.187c-64.678,0 -117.188,-52.51 -117.188,-117.187c0,-64.678 52.51,-117.188 117.188,-117.188Z" style="fill:#1d263d;"/><circle cx="4815.27" cy="12085" r="83.806" style="fill:#1d263d;"/></g></g><g><g><g><g><path d="M3225.59,7544.17c-0,-11.726 -9.52,-21.246 -21.247,-21.246l-600.29,-0c-11.727,-0 -21.247,9.52 -21.247,21.246l0,165.84c0,11.727 9.52,21.247 21.247,21.247l600.29,-0c11.727,-0 21.247,-9.52 21.247,-21.247l-0,-165.84Z" style="fill:#1d263d;"/><g><path d="M2904.2,7616.43c0,-5.884 -4.777,-10.661 -10.661,-10.661l-261.735,0c-5.884,0 -10.661,4.777 -10.661,10.661l-0,21.322c-0,5.884 4.777,10.661 10.661,10.661l261.735,0c5.884,0 10.661,-4.777 10.661,-10.661l0,-21.322Z" style="fill:#f0f2f7;"/><path d="M3187.18,7616.18c-0,-5.749 -4.668,-10.417 -10.417,-10.417l-20.833,0c-5.749,0 -10.417,4.668 -10.417,10.417l0,20.833c0,5.749 4.668,10.417 10.417,10.417l20.833,-0c5.749,-0 10.417,-4.668 10.417,-10.417l-0,-20.833Z" style="fill:#f0f2f7;"/><path d="M3108.01,7616.18c0,-5.749 -4.667,-10.417 -10.416,-10.417l-20.834,0c-5.749,0 -10.416,4.668 -10.416,10.417l-0,20.833c-0,5.749 4.667,10.417 10.416,10.417l20.834,-0c5.749,-0 10.416,-4.668 10.416,-10.417l0,-20.833Z" style="fill:#f0f2f7;"/><path d="M3028.85,7616.18c-0,-5.749 -4.668,-10.417 -10.417,-10.417l-20.833,0c-5.75,0 -10.417,4.668 -10.417,10.417l-0,20.833c-0,5.749 4.667,10.417 10.417,10.417l20.833,-0c5.749,-0 10.417,-4.668 10.417,-10.417l-0,-20.833Z" style="fill:#f0f2f7;"/></g></g><g><path d="M3225.59,7794.17c-0,-11.726 -9.52,-21.246 -21.247,-21.246l-600.29,-0c-11.727,-0 -21.247,9.52 -21.247,21.246l0,165.84c0,11.727 9.52,21.247 21.247,21.247l600.29,-0c11.727,-0 21.247,-9.52 21.247,-21.247l-0,-165.84Z" style="fill:#1d263d;"/><g><path d="M2904.2,7866.43c0,-5.884 -4.777,-10.661 -10.661,-10.661l-261.735,0c-5.884,0 -10.661,4.777 -10.661,10.661l-0,21.322c-0,5.884 4.777,10.661 10.661,10.661l261.735,0c5.884,0 10.661,-4.777 10.661,-10.661l0,-21.322Z" style="fill:#f0f2f7;"/><path d="M3187.18,7866.18c-0,-5.749 -4.668,-10.417 -10.417,-10.417l-20.833,0c-5.749,0 -10.417,4.668 -10.417,10.417l0,20.833c0,5.749 4.668,10.417 10.417,10.417l20.833,-0c5.749,-0 10.417,-4.668 10.417,-10.417l-0,-20.833Z" style="fill:#f0f2f7;"/><path d="M3108.01,7866.18c0,-5.749 -4.667,-10.417 -10.416,-10.417l-20.834,0c-5.749,0 -10.416,4.668 -10.416,10.417l-0,20.833c-0,5.749 4.667,10.417 10.416,10.417l20.834,-0c5.749,-0 10.416,-4.668 10.416,-10.417l0,-20.833Z" style="fill:#f0f2f7;"/><path d="M3028.85,7866.18c-0,-5.749 -4.668,-10.417 -10.417,-10.417l-20.833,0c-5.75,0 -10.417,4.668 -10.417,10.417l-0,20.833c-0,5.749 4.667,10.417 10.417,10.417l20.833,-0c5.749,-0 10.417,-4.668 10.417,-10.417l-0,-20.833Z" style="fill:#f0f2f7;"/></g></g><g><path d="M3225.59,8044.17c-0,-11.726 -9.52,-21.246 -21.247,-21.246l-600.29,-0c-11.727,-0 -21.247,9.52 -21.247,21.246l0,165.84c0,11.727 9.52,21.247 21.247,21.247l600.29,-0c11.727,-0 21.247,-9.52 21.247,-21.247l-0,-165.84Z" style="fill:#1d263d;"/><g><path d="M2904.2,8116.43c0,-5.884 -4.777,-10.661 -10.661,-10.661l-261.735,0c-5.884,0 -10.661,4.777 -10.661,10.661l-0,21.322c-0,5.884 4.777,10.661 10.661,10.661l261.735,0c5.884,0 10.661,-4.777 10.661,-10.661l0,-21.322Z" style="fill:#f0f2f7;"/><path d="M3187.18,8116.18c-0,-5.749 -4.668,-10.417 -10.417,-10.417l-20.833,0c-5.749,0 -10.417,4.668 -10.417,10.417l0,20.833c0,5.749 4.668,10.417 10.417,10.417l20.833,-0c5.749,-0 10.417,-4.668 10.417,-10.417l-0,-20.833Z" style="fill:#f0f2f7;"/><path d="M3108.01,8116.18c0,-5.749 -4.667,-10.417 -10.416,-10.417l-20.834,0c-5.749,0 -10.416,4.668 -10.416,10.417l-0,20.833c-0,5.749 4.667,10.417 10.416,10.417l20.834,-0c5.749,-0 10.416,-4.668 10.416,-10.417l0,-20.833Z" style="fill:#f0f2f7;"/><path d="M3028.85,8116.18c-0,-5.749 -4.668,-10.417 -10.417,-10.417l-20.833,0c-5.75,0 -10.417,4.668 -10.417,10.417l-0,20.833c-0,5.749 4.667,10.417 10.417,10.417l20.833,-0c5.749,-0 10.417,-4.668 10.417,-10.417l-0,-20.833Z" style="fill:#f0f2f7;"/></g></g></g><text x="2601.47px" y="8554.76px" style="font-family:'Lato-Bold', 'Lato', sans-serif;font-weight:700;font-size:266.667px;fill:#1d273d;">WEB</text></g><g><path d="M2945.87,8964.11c-0,22.996 -18.671,41.666 -41.667,41.666c-22.996,0 -41.667,-18.67 -41.667,-41.666c0,-22.997 18.671,-41.667 41.667,-41.667c22.996,-0 41.667,18.67 41.667,41.667Z" style="fill:#1d263d;"/><path d="M2945.87,9130.78c-0,22.997 -18.671,41.667 -41.667,41.667c-22.996,-0 -41.667,-18.67 -41.667,-41.667c0,-22.996 18.671,-41.666 41.667,-41.666c22.996,-0 41.667,18.67 41.667,41.666Z" style="fill:#1d263d;"/><path d="M2945.87,9297.45c-0,22.996 -18.671,41.667 -41.667,41.667c-22.996,-0 -41.667,-18.671 -41.667,-41.667c0,-22.996 18.671,-41.667 41.667,-41.667c22.996,0 41.667,18.671 41.667,41.667Z" style="fill:#1d263d;"/></g><g><path d="M2945.87,6787.42c-0,22.997 -18.671,41.667 -41.667,41.667c-22.996,-0 -41.667,-18.67 -41.667,-41.667c0,-22.996 18.671,-41.666 41.667,-41.666c22.996,-0 41.667,18.67 41.667,41.666Z" style="fill:#1d263d;"/><path d="M2945.87,6954.08c-0,22.996 -18.671,41.667 -41.667,41.667c-22.996,-0 -41.667,-18.671 -41.667,-41.667c0,-22.997 18.671,-41.667 41.667,-41.667c22.996,0 41.667,18.67 41.667,41.667Z" style="fill:#1d263d;"/><path d="M2945.87,7120.75c-0,22.996 -18.671,41.666 -41.667,41.666c-22.996,0 -41.667,-18.67 -41.667,-41.666c0,-22.997 18.671,-41.667 41.667,-41.667c22.996,-0 41.667,18.67 41.667,41.667Z" style="fill:#1d263d;"/></g></g></g><g><path d="M6975.68,12085l1357.65,-0" style="fill:none;stroke:#7d92d0;stroke-width:55.56px;"/><path d="M6975.68,4138.03l1357.65,-0" style="fill:none;stroke:#7d92d0;stroke-width:55.56px;"/></g><g><circle cx="8350" cy="4138.98" r="156.25" style="fill:#7d92d0;"/><circle cx="8350" cy="4138.98" r="134.87" style="fill:#fbfcfd;"/><circle cx="8350" cy="4138.98" r="96.784" style="fill:#7d92d0;"/></g><g><circle cx="8350" cy="12085" r="156.25" style="fill:#7d92d0;"/><circle cx="8350" cy="12085" r="134.87" style="fill:#fbfcfd;"/><circle cx="8350" cy="12085" r="96.784" style="fill:#7d92d0;"/></g><g><circle cx="6819.43" cy="4138.03" r="156.25" style="fill:#7d92d0;"/><circle cx="6819.43" cy="4138.03" r="134.87" style="fill:#fbfcfd;"/><circle cx="6819.43" cy="4138.03" r="96.784" style="fill:#7d92d0;"/></g><g><circle cx="6819.43" cy="12085" r="156.25" style="fill:#7d92d0;"/><circle cx="6819.43" cy="12085" r="134.87" style="fill:#fbfcfd;"/><circle cx="6819.43" cy="12085" r="96.784" style="fill:#7d92d0;"/></g><g><g id="UI-Info-block" serif:id="UI Info block"><rect x="3723.16" y="628.584" width="3332.6" height="399.738" style="fill:#e7ebf5;"/><g transform="matrix(4.16667,0,0,4.16667,3362.97,-8311.47)"><text x="111.518px" y="2186.94px" style="font-family:'Lato-Regular', 'Lato', sans-serif;font-size:24px;fill:#5f78b2;">UI La<tspan x="165.158px 177.134px 189.71px " y="2186.94px 2186.94px 2186.94px ">yer</tspan> ha<tspan x="229.142px 241.118px 253.694px " y="2186.94px 2186.94px 2186.94px ">ve </tspan>access only to Core La<tspan x="488.414px 500.39px 512.966px 521.054px 526.142px " y="2186.94px 2186.94px 2186.94px 2186.94px 2186.94px ">yer, </tspan>do not ha<tspan x="627.566px 639.542px 652.118px " y="2186.94px 2186.94px 2186.94px ">ve </tspan>access to</text><text x="111.518px" y="2217.9px" style="font-family:'Lato-Regular', 'Lato', sans-serif;font-size:24px;fill:#5f78b2;">Infr<tspan x="149.534px 161.702px " y="2217.9px 2217.9px ">as</tspan>tructure and it&apos;s dependencies</text></g></g><g id="UI-Info-Block3" serif:id="UI Info Block"><rect x="7385.7" y="3097.38" width="1895.27" height="316.917" style="fill:#f0f7fd;"/><g transform="matrix(4.16667,0,0,4.16667,6991.32,-5871.36)"><text x="111.518px" y="2183.99px" style="font-family:'Lato-Regular', 'Lato', sans-serif;font-size:20px;fill:#7dbaf1;">As an argument to application service</text><text x="111.518px" y="2211.79px" style="font-family:'Lato-Regular', 'Lato', sans-serif;font-size:20px;fill:#7dbaf1;">method y<tspan x="193.138px 204.258px " y="2211.79px 2211.79px ">ou</tspan> pro<tspan x="249.198px 259.438px " y="2211.79px 2211.79px ">vi</tspan>de instance of Request Object</text></g></g><g id="UI-Info-Block4" serif:id="UI Info Block"><rect x="3867.63" y="12476.9" width="1895.27" height="672.71" style="fill:#e7ebf5;"/><g transform="matrix(4.16667,0,0,4.16667,3473.25,3508.17)"><text x="111.518px" y="2183.99px" style="font-family:'Lato-Regular', 'Lato', sans-serif;font-size:20px;fill:#5f78b2;">UI La<tspan x="156.218px 166.198px 176.678px 183.418px 187.658px " y="2183.99px 2183.99px 2183.99px 2183.99px 2183.99px ">yer, </tspan>depending on protocol returns data in</text><text x="111.518px" y="2211.79px" style="font-family:'Lato-Regular', 'Lato', sans-serif;font-size:20px;fill:#5f78b2;">speciﬁc format, if there are differences in</text><text x="111.518px" y="2239.6px" style="font-family:'Lato-Regular', 'Lato', sans-serif;font-size:20px;fill:#5f78b2;">structure between returned data b<tspan x="413.058px 423.298px " y="2239.6px 2239.6px ">y </tspan>service and</text><text x="111.518px" y="2267.4px" style="font-family:'Lato-Regular', 'Lato', sans-serif;font-size:20px;fill:#5f78b2;">structure required b<tspan x="287.618px 297.858px " y="2267.4px 2267.4px ">y </tspan>protocol use UI Mapper</text><text x="111.518px" y="2295.2px" style="font-family:'Lato-Regular', 'Lato', sans-serif;font-size:20px;fill:#5f78b2;">and tr<tspan x="162.958px 173.098px " y="2295.2px 2295.2px ">an</tspan>slate Domain Data to UI Model Data</text></g></g><g id="UI-Info-Block5" serif:id="UI Info Block"><rect x="3867.63" y="3121.38" width="1942.04" height="598.073" style="fill:#f0f7fd;"/><g transform="matrix(4.16667,0,0,4.16667,3473.25,-5847.35)"><text x="111.518px" y="2186.94px" style="font-family:'Lato-Regular', 'Lato', sans-serif;font-size:24px;fill:#7dbaf1;">Domain contains deﬁnition of entry</text><text x="111.518px" y="2217.9px" style="font-family:'Lato-Regular', 'Lato', sans-serif;font-size:24px;fill:#7dbaf1;">points  for  speciﬁc protocols ( lik<tspan x="449.99px " y="2217.9px ">e</tspan></text><text x="111.518px" y="2248.86px" style="font-family:'Lato-Regular', 'Lato', sans-serif;font-size:24px;fill:#7dbaf1;">Gr<tspan x="138.35px 150.518px " y="2248.86px 2248.86px ">ap</tspan>hQL or Rest  etc.) . It  ma<tspan x="413.99px 426.278px " y="2248.86px 2248.86px ">y </tspan>contain</text><text x="111.518px" y="2279.83px" style="font-family:'Lato-Regular', 'Lato', sans-serif;font-size:24px;fill:#7dbaf1;">it&apos;s own models, helpers, utils etc.</text></g></g><g id="Infra-Info-Block3" serif:id="Infra Info Block"><rect x="2237.49" y="13776.7" width="3491.73" height="993.648" style="fill:#e7ebf5;"/><g transform="matrix(4.16667,0,0,4.16667,1817.07,4812.86)"><text x="111.518px" y="2186.94px" style="font-family:'Lato-Regular', 'Lato', sans-serif;font-size:24px;fill:#5f78b2;">UI La<tspan x="165.158px 177.134px 189.71px " y="2186.94px 2186.94px 2186.94px ">yer</tspan> deﬁnes it&apos;s own UI la<tspan x="417.47px 429.446px 442.022px " y="2186.94px 2186.94px 2186.94px ">yer</tspan> models, but from m<tspan x="656.75px 669.038px " y="2186.94px 2186.94px ">y </tspan>perspectiv<tspan x="783.686px 796.262px " y="2186.94px 2186.94px ">e </tspan>there can</text><text x="111.518px" y="2217.9px" style="font-family:'Lato-Regular', 'Lato', sans-serif;font-size:24px;fill:#5f78b2;">be e<tspan x="153.998px 165.374px 176.582px " y="2217.9px 2217.9px 2217.9px ">xce</tspan>ption. If response body format is e<tspan x="540.926px 553.022px " y="2217.9px 2217.9px ">xa</tspan>ctly the same as business model I</text><text x="111.518px" y="2248.86px" style="font-family:'Lato-Regular', 'Lato', sans-serif;font-size:24px;fill:#5f78b2;">think that it&apos;s allowed to just return Domain model. Domain model is not</text><text x="111.518px" y="2279.83px" style="font-family:'Lato-Regular', 'Lato', sans-serif;font-size:24px;fill:#5f78b2;">polluted ( lik<tspan x="239.294px 251.87px " y="2279.83px 2279.83px ">e </tspan>in case of persistence ) b<tspan x="508.382px 520.67px " y="2279.83px 2279.83px ">y </tspan>additional ﬁelds. Here y<tspan x="770.702px 784.046px " y="2279.83px 2279.83px ">ou</tspan> ha<tspan x="827.15px 839.126px 851.702px " y="2279.83px 2279.83px 2279.83px ">ve </tspan>to be</text><text x="111.518px" y="2310.79px" style="font-family:'Lato-Regular', 'Lato', sans-serif;font-size:24px;fill:#5f78b2;">careful though - if there is a need to ha<tspan x="508.742px 520.718px 533.294px " y="2310.79px 2310.79px 2310.79px ">ve </tspan>additional ﬁeld on UI then deﬁne UI</text><text x="111.518px" y="2341.75px" style="font-family:'Lato-Regular', 'Lato', sans-serif;font-size:24px;fill:#5f78b2;">model and do not use Domain Model. The k<tspan x="558.782px 571.046px 583.334px " y="2341.75px 2341.75px 2341.75px ">ey </tspan>here is to not mo<tspan x="761.894px 773.87px 786.446px " y="2341.75px 2341.75px 2341.75px ">ve </tspan>an<tspan x="816.206px 828.494px " y="2341.75px 2341.75px ">y </tspan>UI</text><text x="111.518px" y="2372.71px" style="font-family:'Lato-Regular', 'Lato', sans-serif;font-size:24px;fill:#5f78b2;">related logic into Core La<tspan x="372.59px 384.566px 397.142px " y="2372.71px 2372.71px 2372.71px ">yer</tspan></text></g></g></g><text x="7913.2px" y="4650.39px" style="font-family:'Lato-Regular', 'Lato', sans-serif;font-size:133.333px;fill:#5f78b2;">UI ASKS CORE</text><g transform="matrix(4.16667,0,0,4.16667,11883.2,5709.31)"><text x="1009.53px" y="1384.56px" style="font-family:'Lato-Regular', 'Lato', sans-serif;font-size:32px;fill:#e9c2f9;">INFRASTR<tspan x="1159.81px 1183.17px " y="1384.56px 1384.56px ">UC</tspan>TURE</text><text x="973.311px" y="1432.56px" style="font-family:'Lato-Regular', 'Lato', sans-serif;font-size:32px;fill:#e9c2f9;">RETURNS TRANSLA<tspan x="1261.18px 1280.06px " y="1432.56px 1432.56px ">TE</tspan>D</text><text x="1110.32px" y="1480.56px" style="font-family:'Lato-Regular', 'Lato', sans-serif;font-size:32px;fill:#e9c2f9;">D<tspan x="1133.74px 1153.39px " y="1480.56px 1480.56px ">AT</tspan>A</text></g><path d="M9102.04,12458.1l0,77.861l-1303.83,0l-0,77.861l-233.583,-116.791l233.583,-116.792l-0,77.861l1303.83,0Z" style="fill:#87f5bc;"/><path d="M7564.63,3797.39l-0,-77.861l1303.83,0l0,-77.861l233.583,116.792l-233.583,116.791l0,-77.861l-1303.83,0Z" style="fill:#87f5bc;"/></g><g><g><rect x="1519.56" y="15805.7" width="21960.9" height="444.308" style="fill:#e1e8f4;"/><text x="11291.8px" y="16102.1px" style="font-family:'Lato-Bold', 'Lato', sans-serif;font-weight:700;font-size:200px;fill:#48669d;">DEPENDENCY INJECTION</text></g><g><rect x="1519.56" y="0" width="21960.9" height="444.308" style="fill:#e1e8f4;"/><text x="11291.8px" y="296.454px" style="font-family:'Lato-Bold', 'Lato', sans-serif;font-weight:700;font-size:200px;fill:#48669d;">DEPENDENCY INJECTION</text></g><path d="M23036.1,444.308l-0,15361.4l444.308,-0l-0,-15361.4l-444.308,0Z" style="fill:#e1e8f4;"/><path d="M1519.56,0l0,15805.7l444.308,-0l0,-15805.7l-444.308,0Z" style="fill:#e1e8f4;"/></g></g><text x="2237.49px" y="15638.6px" style="font-family:'Lato-Bold', 'Lato', sans-serif;font-weight:700;font-size:200px;fill:#cbd4ea;">© MA<tspan x="2747.69px 2866.69px " y="15638.6px 15638.6px ">TU</tspan>SZEW</text></svg>