<?xml version="1.0" encoding="UTF-8" standalone="no"?>
<!DOCTYPE svg PUBLIC "-//W3C//DTD SVG 1.1//EN" "http://www.w3.org/Graphics/SVG/1.1/DTD/svg11.dtd">
<svg width="100%" height="100%" viewBox="0 0 25000 16294" version="1.1" xmlns="http://www.w3.org/2000/svg" xmlns:xlink="http://www.w3.org/1999/xlink" xml:space="preserve" xmlns:serif="http://www.serif.com/" style="fill-rule:evenodd;clip-rule:evenodd;stroke-linecap:square;stroke-linejoin:round;stroke-miterlimit:1.5;">
    <g transform="matrix(4.16667,0,0,4.16667,0,0)">
        <g id="User-Interface" serif:id="User Interface" transform="matrix(2.87952,0,0,1.70728,471.328,110.819)">
            <rect x="0" y="0" width="1920" height="2160" style="fill:rgb(251,252,253);"/>
        </g>
        <g id="UI-" serif:id="UI " transform="matrix(1,0,0,1,1009.18,5.18545)">
            <g transform="matrix(1,3.1095e-17,-1.30123e-17,1,-2075.12,-746.925)">
                <text x="2766.95px" y="1274.33px" style="font-family:'Lato-Bold', 'Lato', sans-serif;font-weight:700;font-size:384px;fill:rgb(135,169,202);fill-opacity:0.1;">USER INTERF<tspan x="5096.1px 5358.95px 5616.42px " y="1274.33px 1274.33px 1274.33px ">ACE</tspan></text>
            </g>
            <g transform="matrix(0.675398,0,0,0.903683,3853.62,375.663)">
                <g transform="matrix(8.43839,-7.64207e-32,1.24197e-31,1,-9501.4,-3.97904e-13)">
                    <g transform="matrix(2.25538,0,-2.76623e-48,1.01071,-990.819,44.0714)">
                        <rect x="654.082" y="263.503" width="315.768" height="3279.21" style="fill:rgb(243,242,254);stroke:rgb(82,90,108);stroke-width:0.37px;stroke-dasharray:1.83,1.83,0,0;"/>
                    </g>
                    <g transform="matrix(0.175461,-1.23736e-17,6.22647e-16,1.10658,486.774,-467.053)">
                        <text x="1384.61px" y="912.823px" style="font-family:'Lato-Bold', 'Lato', sans-serif;font-weight:700;font-size:128px;fill:rgb(72,102,157);fill-opacity:0.5;">BOUNDED CONTEXT</text>
                    </g>
                </g>
                <g transform="matrix(1.01322e-15,12.367,-3.89367,1.78189e-16,8066.32,-10808.6)">
                    <g transform="matrix(0.708249,0,-1.32641e-33,0.430448,467.075,1871.2)">
                        <rect x="654.082" y="263.503" width="315.768" height="3279.21" style="fill:rgb(242,248,254);stroke:rgb(156,193,243);stroke-width:0.59px;"/>
                    </g>
                    <g transform="matrix(7.90715e-18,-0.38026,0.0894786,-1.07277e-16,875.356,3749.91)">
                        <text x="2581.98px" y="820.453px" style="font-family:'Lato-Bold', 'Lato', sans-serif;font-weight:700;font-size:96px;fill:rgb(18,128,231);fill-opacity:0.5;">DOMAIN</text>
                    </g>
                </g>
            </g>
        </g>
        <g transform="matrix(1.3418e-16,2.19132,-1.0282,6.29588e-17,4603.32,-1024.53)">
            <g transform="matrix(5.10269e-17,-0.833333,0.833333,5.10269e-17,-494.064,3413.82)">
                <rect x="1942.86" y="1982.18" width="1115.04" height="272.274" style="fill:white;stroke:rgb(156,193,243);stroke-width:2.34px;stroke-linecap:round;"/>
            </g>
            <g transform="matrix(2.31804e-16,-0.972577,0.456346,-1.52409e-17,877.39,2443.31)">
                <text x="969.848px" y="886.737px" style="font-family:'Lato-Bold', 'Lato', sans-serif;font-weight:700;font-size:64px;fill:rgb(18,128,231);fill-opacity:0.5;">RESOL<tspan x="1160.89px 1206.33px " y="886.737px 886.737px ">VE</tspan>RS</text>
            </g>
        </g>
        <g transform="matrix(1.19879,5.65689e-32,4.04594e-33,1.96612,3263.34,-350.422)">
            <g transform="matrix(5.10269e-17,-0.833333,0.833333,5.10269e-17,-494.064,3413.82)">
                <rect x="1942.86" y="1982.18" width="1115.04" height="272.274" style="fill:rgb(251,241,232);stroke:rgb(238,81,104);stroke-width:2.46px;stroke-linecap:round;"/>
            </g>
            <g transform="matrix(1.21223e-16,-0.508615,0.834173,-2.78595e-17,645.267,2011.67)">
                <text x="1068.55px" y="774.137px" style="font-family:'Lato-Bold', 'Lato', sans-serif;font-weight:700;font-size:64px;fill:rgb(244,217,196);">DOMAIN SERVICE</text>
            </g>
        </g>
        <g transform="matrix(1.34177e-16,2.19127,-1.02817,6.29572e-17,4603.3,-26.2608)">
            <g transform="matrix(5.10269e-17,-0.833333,0.833333,5.10269e-17,-494.064,3413.82)">
                <rect x="1942.86" y="1982.18" width="1115.04" height="272.274" style="fill:white;stroke:rgb(156,193,243);stroke-width:2.34px;stroke-linecap:round;"/>
            </g>
            <g transform="matrix(2.15894e-16,-0.972602,0.456356,-2.15749e-17,877.384,2460.98)">
                <text x="937.085px" y="886.731px" style="font-family:'Lato-Bold', 'Lato', sans-serif;font-weight:700;font-size:64px;fill:rgb(18,128,231);fill-opacity:0.5;">CONTR<tspan x="1158.01px 1209.18px " y="886.731px 886.731px ">OL</tspan>LERS</text>
            </g>
        </g>
        <g transform="matrix(1.2,0,0,1.2,0,5.18545)">
            <g transform="matrix(1,0,0,0.856808,133.014,323.539)">
                <g transform="matrix(5.10269e-17,-0.833333,0.833333,5.10269e-17,-494.064,3413.82)">
                    <rect x="1942.86" y="1982.18" width="1115.04" height="272.274" style="fill:white;stroke:rgb(156,193,243);stroke-width:3.58px;stroke-linecap:round;"/>
                </g>
                <g transform="matrix(2.3181e-16,-0.972602,0.833333,-2.78315e-17,645.783,2443.33)">
                    <text x="991.394px" y="774.274px" style="font-family:'Lato-Bold', 'Lato', sans-serif;font-weight:700;font-size:64px;fill:rgb(18,128,231);fill-opacity:0.5;">GRAPHQL</text>
                </g>
            </g>
            <g transform="matrix(5.10269e-17,0.833333,-0.833333,5.10269e-17,2106.23,254.899)">
                <g transform="matrix(0.505913,0,0,0.505913,381.449,411.288)">
                    <circle cx="791.794" cy="852.188" r="19.766" style="fill:rgb(156,193,243);"/>
                </g>
                <g transform="matrix(0.505913,0,0,0.505913,421.449,411.288)">
                    <circle cx="791.794" cy="852.188" r="19.766" style="fill:rgb(156,193,243);"/>
                </g>
                <g transform="matrix(0.505913,0,0,0.505913,461.449,411.288)">
                    <circle cx="791.794" cy="852.188" r="19.766" style="fill:rgb(156,193,243);"/>
                </g>
            </g>
            <g transform="matrix(5.10269e-17,0.833333,-0.833333,5.10269e-17,2106.23,2133.44)">
                <g transform="matrix(0.505913,0,0,0.505913,381.449,411.288)">
                    <circle cx="791.794" cy="852.188" r="19.766" style="fill:rgb(156,193,243);"/>
                </g>
                <g transform="matrix(0.505913,0,0,0.505913,421.449,411.288)">
                    <circle cx="791.794" cy="852.188" r="19.766" style="fill:rgb(156,193,243);"/>
                </g>
                <g transform="matrix(0.505913,0,0,0.505913,461.449,411.288)">
                    <circle cx="791.794" cy="852.188" r="19.766" style="fill:rgb(156,193,243);"/>
                </g>
            </g>
            <g transform="matrix(1,0,0,0.856808,133.014,323.539)">
                <g transform="matrix(5.10269e-17,-0.833333,0.833333,5.10269e-17,-494.064,4384.68)">
                    <rect x="1942.86" y="1982.18" width="1115.04" height="272.274" style="fill:white;stroke:rgb(156,193,243);stroke-width:3.58px;stroke-linecap:round;"/>
                </g>
                <g transform="matrix(2.3181e-16,-0.972602,0.833333,-2.78315e-17,645.783,3414.2)">
                    <text x="1069.04px" y="774.274px" style="font-family:'Lato-Bold', 'Lato', sans-serif;font-weight:700;font-size:64px;fill:rgb(18,128,231);fill-opacity:0.5;">REST</text>
                </g>
            </g>
        </g>
        <g id="DI-Injection" serif:id="DI Injection" transform="matrix(5.41361e-16,2.80295,-0.297296,2.10682e-16,4966.3,-3823.48)">
            <path d="M1384.04,654.509L1384.04,550.086L1752.19,550.086L1752.19,445.662L1785.42,602.298L1752.19,758.933L1752.19,654.509L1384.04,654.509Z" style="fill:rgb(135,245,188);"/>
        </g>
        <g id="Flow-Group" serif:id="Flow Group">
            <g id="Domain-Flow" serif:id="Domain Flow">
                <g transform="matrix(1,0,0,1,5.92901,499.152)">
                    <g transform="matrix(-1.0727,-1.31368e-16,1.22465e-16,-1,9218.09,2258.92)">
                        <path d="M3000,495.796L4000,495.796" style="fill:none;stroke:rgb(250,206,166);stroke-width:12.86px;"/>
                    </g>
                    <g transform="matrix(-2.37252,-2.9055e-16,2.74446e-16,-2.24102,9837.72,4187.07)">
                        <g transform="matrix(0.54002,0,0,0.54002,792.483,804.497)">
                            <circle cx="2369.26" cy="514.885" r="30.987" style="fill:rgb(250,206,166);"/>
                        </g>
                        <g transform="matrix(0.466128,0,0,0.466128,967.551,842.543)">
                            <circle cx="2369.26" cy="514.885" r="30.987" style="fill:rgb(251,252,253);"/>
                        </g>
                        <g transform="matrix(0.334498,0,0,0.334498,1279.42,910.317)">
                            <circle cx="2369.26" cy="514.885" r="30.987" style="fill:rgb(250,206,166);"/>
                        </g>
                    </g>
                </g>
                <g transform="matrix(0.443183,-4.996e-17,9.15934e-17,0.16668,4744.76,2105.49)">
                    <path d="M1384.04,654.509L1384.04,550.086L1667.6,550.086L1667.6,445.662L1785.42,602.298L1667.6,758.933L1667.6,654.509L1384.04,654.509Z" style="fill:rgb(135,245,188);"/>
                </g>
            </g>
            <g>
                <g transform="matrix(0.516922,0,0,0.224376,1686.63,1649.82)">
                    <path d="M322.927,495.796L2000,495.796" style="fill:none;stroke:rgb(125,146,208);stroke-width:33.46px;"/>
                </g>
                <g transform="matrix(9.89305e-17,1.61566,-0.643419,3.93981e-17,3145.44,298.041)">
                    <g transform="matrix(3.93846e-17,-0.833333,0.416667,4.0994e-18,331.843,3413.82)">
                        <rect x="1942.86" y="1982.18" width="1115.04" height="272.274" style="fill:white;stroke:rgb(156,193,243);stroke-width:5.48px;stroke-linecap:round;"/>
                    </g>
                    <g transform="matrix(1.15558e-16,-1.5542,0.618943,-3.64718e-16,777.496,3240.68)">
                        <text x="966.501px" y="720.867px" style="font-family:'Lato-Bold', 'Lato', sans-serif;font-weight:700;font-size:40px;fill:rgb(18,128,231);fill-opacity:0.5;">UI MAPPER - DOMAIN T<tspan x="1410.64px 1442.62px " y="720.867px 720.867px ">O </tspan>UI</text>
                    </g>
                </g>
                <g transform="matrix(2.16991e-17,0.238436,-0.15382,6.3373e-18,2591.98,1691.7)">
                    <path d="M322.927,495.796L2000,495.796" style="fill:none;stroke:rgb(125,146,208);stroke-width:66.45px;stroke-dasharray:66.45,199.36,0,0;"/>
                </g>
                <g transform="matrix(2.16991e-17,0.238436,-0.15382,6.3373e-18,2146.32,1691.7)">
                    <path d="M322.927,495.796L2000,495.796" style="fill:none;stroke:rgb(125,146,208);stroke-width:66.45px;stroke-dasharray:66.45,199.36,0,0;"/>
                </g>
                <g transform="matrix(-2.04558e-17,0.288245,-0.108408,3.96579e-17,2630.42,1498.4)">
                    <path d="M1384.04,654.509L1384.04,550.086L1667.6,550.086L1667.6,445.662L1785.42,602.298L1667.6,758.933L1667.6,654.509L1384.04,654.509Z" style="fill:rgb(135,245,188);"/>
                </g>
                <g transform="matrix(5.57556e-17,-0.288245,0.108408,-2.63817e-17,1948.74,2411.97)">
                    <path d="M1384.04,654.509L1384.04,550.086L1667.6,550.086L1667.6,445.662L1785.42,602.298L1667.6,758.933L1667.6,654.509L1384.04,654.509Z" style="fill:rgb(135,245,188);"/>
                </g>
                <g transform="matrix(0.443183,-4.996e-17,9.15934e-17,0.16668,1587.26,1565.28)">
                    <path d="M1384.04,654.509L1384.04,550.086L1667.6,550.086L1667.6,445.662L1785.42,602.298L1667.6,758.933L1667.6,654.509L1384.04,654.509Z" style="fill:rgb(135,245,188);"/>
                </g>
                <g transform="matrix(-0.443183,-4.3142e-18,-7.1181e-17,-0.16668,2991.91,1975.99)">
                    <path d="M1384.04,654.509L1384.04,550.086L1667.6,550.086L1667.6,445.662L1785.42,602.298L1667.6,758.933L1667.6,654.509L1384.04,654.509Z" style="fill:rgb(135,245,188);"/>
                </g>
                <g transform="matrix(1,0,0,1,1095.85,407.935)">
                    <text x="1066.17px" y="1413.06px" style="font-family:'Lato-Regular', 'Lato', sans-serif;font-size:32px;fill:rgb(95,120,178);">DOMAIN MODEL</text>
                </g>
                <g transform="matrix(1,0,0,1,1141.55,327.366)">
                    <text x="1056.24px" y="1413.06px" style="font-family:'Lato-Regular', 'Lato', sans-serif;font-size:32px;fill:rgb(95,120,178);">INPUT D<tspan x="1181.65px 1201.3px " y="1413.06px 1413.06px ">AT</tspan>A</text>
                </g>
                <g transform="matrix(2.24102,0,0,2.24102,-1885.27,-664.945)">
                    <g transform="matrix(0.54002,0,0,0.54002,792.483,804.497)">
                        <circle cx="2369.26" cy="514.885" r="30.987" style="fill:rgb(125,146,208);"/>
                    </g>
                    <g transform="matrix(0.466128,0,0,0.466128,967.551,842.543)">
                        <circle cx="2369.26" cy="514.885" r="30.987" style="fill:rgb(251,252,253);"/>
                    </g>
                    <g transform="matrix(0.334498,0,0,0.334498,1279.42,910.317)">
                        <circle cx="2369.26" cy="514.885" r="30.987" style="fill:rgb(125,146,208);"/>
                    </g>
                </g>
                <g transform="matrix(2.24102,0,0,2.24102,-2822.06,-664.945)">
                    <g transform="matrix(0.54002,0,0,0.54002,792.483,804.497)">
                        <circle cx="2369.26" cy="514.885" r="30.987" style="fill:rgb(125,146,208);"/>
                    </g>
                    <g transform="matrix(0.466128,0,0,0.466128,967.551,842.543)">
                        <circle cx="2369.26" cy="514.885" r="30.987" style="fill:rgb(251,252,253);"/>
                    </g>
                    <g transform="matrix(0.334498,0,0,0.334498,1279.42,910.317)">
                        <circle cx="2369.26" cy="514.885" r="30.987" style="fill:rgb(125,146,208);"/>
                    </g>
                </g>
            </g>
            <g transform="matrix(1,0,0,1,0,990.357)">
                <g transform="matrix(1,0,0,1,0,-990.357)">
                    <g transform="matrix(9.89305e-17,1.61566,-0.643419,3.93981e-17,3145.44,1289.41)">
                        <g transform="matrix(3.93846e-17,-0.833333,0.416667,4.0994e-18,331.843,3413.82)">
                            <rect x="1942.86" y="1982.18" width="1115.04" height="272.274" style="fill:white;stroke:rgb(156,193,243);stroke-width:5.48px;stroke-linecap:round;"/>
                        </g>
                        <g transform="matrix(1.15558e-16,-1.5542,0.618943,-3.64718e-16,777.496,3240.68)">
                            <text x="966.501px" y="720.867px" style="font-family:'Lato-Bold', 'Lato', sans-serif;font-weight:700;font-size:40px;fill:rgb(18,128,231);fill-opacity:0.5;">UI MAPPER - DOMAIN T<tspan x="1410.64px 1442.62px " y="720.867px 720.867px ">O </tspan>UI</text>
                        </g>
                    </g>
                    <g transform="matrix(2.16991e-17,0.238436,-0.15382,6.3373e-18,2591.98,2682.28)">
                        <path d="M322.927,495.796L2000,495.796" style="fill:none;stroke:rgb(125,146,208);stroke-width:66.45px;stroke-dasharray:66.45,199.36,0,0;"/>
                    </g>
                    <g transform="matrix(2.16991e-17,0.238436,-0.15382,6.3373e-18,2146.32,2682.28)">
                        <path d="M322.927,495.796L2000,495.796" style="fill:none;stroke:rgb(125,146,208);stroke-width:66.45px;stroke-dasharray:66.45,199.36,0,0;"/>
                    </g>
                    <g transform="matrix(-2.04558e-17,0.288245,-0.108408,3.96579e-17,2633.71,2502.43)">
                        <path d="M1384.04,654.509L1384.04,550.086L1667.6,550.086L1667.6,445.662L1785.42,602.298L1667.6,758.933L1667.6,654.509L1384.04,654.509Z" style="fill:rgb(135,245,188);"/>
                    </g>
                    <g transform="matrix(5.57556e-17,-0.288245,0.108408,-2.63817e-17,1952.03,3416.01)">
                        <path d="M1384.04,654.509L1384.04,550.086L1667.6,550.086L1667.6,445.662L1785.42,602.298L1667.6,758.933L1667.6,654.509L1384.04,654.509Z" style="fill:rgb(135,245,188);"/>
                    </g>
                </g>
                <g transform="matrix(1,0,0,1,1095.85,410.72)">
                    <text x="1066.17px" y="1413.06px" style="font-family:'Lato-Regular', 'Lato', sans-serif;font-size:32px;fill:rgb(95,120,178);">DOMAIN MODEL</text>
                </g>
                <g transform="matrix(1,0,0,1,1141.55,330.151)">
                    <text x="1032.89px" y="1413.06px" style="font-family:'Lato-Regular', 'Lato', sans-serif;font-size:32px;fill:rgb(95,120,178);">P<tspan x="1050.24px 1069.38px 1089.5px 1104.67px 1129.54px 1151.3px " y="1413.06px 1413.06px 1413.06px 1413.06px 1413.06px 1413.06px ">AYLOAD</tspan> D<tspan x="1204.99px 1224.64px " y="1413.06px 1413.06px ">AT</tspan>A</text>
                </g>
                <g transform="matrix(0.443183,-4.996e-17,9.15934e-17,0.16668,1587.26,1565.61)">
                    <path d="M1384.04,654.509L1384.04,550.086L1667.6,550.086L1667.6,445.662L1785.42,602.298L1667.6,758.933L1667.6,654.509L1384.04,654.509Z" style="fill:rgb(135,245,188);"/>
                </g>
                <g transform="matrix(-0.443183,-4.3142e-18,-7.1181e-17,-0.16668,2991.91,1976.33)">
                    <path d="M1384.04,654.509L1384.04,550.086L1667.6,550.086L1667.6,445.662L1785.42,602.298L1667.6,758.933L1667.6,654.509L1384.04,654.509Z" style="fill:rgb(135,245,188);"/>
                </g>
                <g transform="matrix(0.516922,0,0,0.224376,1686.63,1657.45)">
                    <path d="M322.927,495.796L2000,495.796" style="fill:none;stroke:rgb(125,146,208);stroke-width:33.46px;"/>
                </g>
                <g transform="matrix(2.24102,0,0,2.24102,-1885.27,-657.086)">
                    <g transform="matrix(0.54002,0,0,0.54002,792.483,804.497)">
                        <circle cx="2369.26" cy="514.885" r="30.987" style="fill:rgb(125,146,208);"/>
                    </g>
                    <g transform="matrix(0.466128,0,0,0.466128,967.551,842.543)">
                        <circle cx="2369.26" cy="514.885" r="30.987" style="fill:rgb(251,252,253);"/>
                    </g>
                    <g transform="matrix(0.334498,0,0,0.334498,1279.42,910.317)">
                        <circle cx="2369.26" cy="514.885" r="30.987" style="fill:rgb(125,146,208);"/>
                    </g>
                </g>
                <g transform="matrix(2.24102,0,0,2.24102,-2822.06,-657.086)">
                    <g transform="matrix(0.54002,0,0,0.54002,792.483,804.497)">
                        <circle cx="2369.26" cy="514.885" r="30.987" style="fill:rgb(125,146,208);"/>
                    </g>
                    <g transform="matrix(0.466128,0,0,0.466128,967.551,842.543)">
                        <circle cx="2369.26" cy="514.885" r="30.987" style="fill:rgb(251,252,253);"/>
                    </g>
                    <g transform="matrix(0.334498,0,0,0.334498,1279.42,910.317)">
                        <circle cx="2369.26" cy="514.885" r="30.987" style="fill:rgb(125,146,208);"/>
                    </g>
                </g>
            </g>
            <g transform="matrix(1,0,0,1,1892.56,988.137)">
                <g transform="matrix(1,0,0,1,1141.55,327.539)">
                    <text x="969.871px" y="1413.06px" style="font-family:'Lato-Regular', 'Lato', sans-serif;font-size:32px;fill:rgb(95,120,178);">REQUEST OBJECT D<tspan x="1268.02px 1287.66px " y="1413.06px 1413.06px ">AT</tspan>A</text>
                </g>
                <g transform="matrix(1,0,0,1,1141.55,412.202)">
                    <text x="1020.46px" y="1413.06px" style="font-family:'Lato-Regular', 'Lato', sans-serif;font-size:32px;fill:rgb(95,120,178);">DOMAIN MODEL</text>
                </g>
                <g transform="matrix(-0.443183,-4.3142e-18,-7.1181e-17,-0.16668,2991.91,1978.55)">
                    <path d="M1384.04,654.509L1384.04,550.086L1667.6,550.086L1667.6,445.662L1785.42,602.298L1667.6,758.933L1667.6,654.509L1384.04,654.509Z" style="fill:rgb(135,245,188);"/>
                </g>
                <g transform="matrix(0.443183,-4.996e-17,9.15934e-17,0.16668,1587.26,1567.83)">
                    <path d="M1384.04,654.509L1384.04,550.086L1667.6,550.086L1667.6,445.662L1785.42,602.298L1667.6,758.933L1667.6,654.509L1384.04,654.509Z" style="fill:rgb(135,245,188);"/>
                </g>
                <g transform="matrix(0.516922,0,0,0.224376,1686.63,1657.45)">
                    <path d="M322.927,495.796L2000,495.796" style="fill:none;stroke:rgb(125,146,208);stroke-width:33.46px;"/>
                </g>
                <g transform="matrix(2.24102,0,0,2.24102,-1885.27,-657.086)">
                    <g transform="matrix(0.54002,0,0,0.54002,792.483,804.497)">
                        <circle cx="2369.26" cy="514.885" r="30.987" style="fill:rgb(125,146,208);"/>
                    </g>
                    <g transform="matrix(0.466128,0,0,0.466128,967.551,842.543)">
                        <circle cx="2369.26" cy="514.885" r="30.987" style="fill:rgb(251,252,253);"/>
                    </g>
                    <g transform="matrix(0.334498,0,0,0.334498,1279.42,910.317)">
                        <circle cx="2369.26" cy="514.885" r="30.987" style="fill:rgb(125,146,208);"/>
                    </g>
                </g>
                <g transform="matrix(2.24102,0,0,2.24102,-2822.06,-657.086)">
                    <g transform="matrix(0.54002,0,0,0.54002,792.483,804.497)">
                        <circle cx="2369.26" cy="514.885" r="30.987" style="fill:rgb(125,146,208);"/>
                    </g>
                    <g transform="matrix(0.466128,0,0,0.466128,967.551,842.543)">
                        <circle cx="2369.26" cy="514.885" r="30.987" style="fill:rgb(251,252,253);"/>
                    </g>
                    <g transform="matrix(0.334498,0,0,0.334498,1279.42,910.317)">
                        <circle cx="2369.26" cy="514.885" r="30.987" style="fill:rgb(125,146,208);"/>
                    </g>
                </g>
            </g>
            <g transform="matrix(0.571789,0,0,1,793.701,-299.683)">
                <g transform="matrix(1.07089e-16,-1,1.7489,6.12323e-17,-2208.3,3452.61)">
                    <text x="1007.18px" y="1413.06px" style="font-family:'Lato-Regular', 'Lato', sans-serif;font-size:32px;fill:rgb(95,120,178);">CLIENT  REQUESTS</text>
                </g>
                <g transform="matrix(1.07089e-16,-1,1.7489,6.12323e-17,-2067.39,3452.61)">
                    <text x="1000.05px" y="1413.06px" style="font-family:'Lato-Regular', 'Lato', sans-serif;font-size:32px;fill:rgb(95,120,178);">SERVER  RESPONDS</text>
                </g>
                <g transform="matrix(1.07089e-16,-1,1.7489,6.12323e-17,-2208.3,3965.15)">
                    <text x="1007.18px" y="1413.06px" style="font-family:'Lato-Regular', 'Lato', sans-serif;font-size:32px;fill:rgb(95,120,178);">CLIENT  REQUESTS</text>
                </g>
                <g transform="matrix(1.07089e-16,-1,1.7489,6.12323e-17,-2067.39,3965.15)">
                    <text x="1000.05px" y="1413.06px" style="font-family:'Lato-Regular', 'Lato', sans-serif;font-size:32px;fill:rgb(95,120,178);">SERVER  RESPONDS</text>
                </g>
                <g>
                    <g transform="matrix(1.61764,0,0,1,-780.943,851.126)">
                        <path d="M1258.72,1209.62L676.159,1209.62" style="fill:none;stroke:rgb(82,90,108);stroke-width:13.84px;"/>
                    </g>
                    <g transform="matrix(1.61764,0,0,1,-780.943,1849.34)">
                        <path d="M1258.72,1209.62L676.159,1209.62" style="fill:none;stroke:rgb(82,90,108);stroke-width:13.84px;"/>
                    </g>
                    <g transform="matrix(0.325156,0,0,1,-105.852,1350.23)">
                        <path d="M1287.65,1209.62L676.159,1209.62" style="fill:none;stroke:rgb(82,90,108);stroke-width:18.54px;"/>
                    </g>
                    <g transform="matrix(1,-4.24472e-17,-1.47172e-16,0.679944,-363.323,1238.27)">
                        <path d="M676.159,2677.71L676.159,1209.62" style="fill:none;stroke:rgb(82,90,108);stroke-width:21.22px;"/>
                    </g>
                    <g transform="matrix(2.35647,0,0,1.3474,-2362.17,1289.65)">
                        <g transform="matrix(1.06099,0,0,1.06099,-79.8258,-29.8675)">
                            <circle cx="1548.31" cy="567.537" r="19.674" style="fill:rgb(240,242,247);"/>
                        </g>
                        <g transform="matrix(1,0,0,1,-207.969,172.97)">
                            <path d="M1770.89,371.482C1786.25,371.482 1798.72,383.953 1798.72,399.313C1798.72,414.674 1786.25,427.145 1770.89,427.145C1755.53,427.145 1743.05,414.674 1743.05,399.313C1743.05,383.953 1755.53,371.482 1770.89,371.482ZM1770.89,378.44C1782.41,378.44 1791.76,387.793 1791.76,399.313C1791.76,410.834 1782.41,420.187 1770.89,420.187C1759.37,420.187 1750.01,410.834 1750.01,399.313C1750.01,387.793 1759.37,378.44 1770.89,378.44Z" style="fill:rgb(29,38,61);"/>
                        </g>
                        <g transform="matrix(0.536359,0,0,0.536359,613.086,358.108)">
                            <circle cx="1770.89" cy="399.313" r="27.831" style="fill:rgb(29,38,61);"/>
                        </g>
                    </g>
                    <g transform="matrix(2.35647,0,0,1.3474,-2362.17,2287.87)">
                        <g transform="matrix(1.06099,0,0,1.06099,-79.8258,-29.8675)">
                            <circle cx="1548.31" cy="567.537" r="19.674" style="fill:rgb(240,242,247);"/>
                        </g>
                        <g transform="matrix(1,0,0,1,-207.969,172.97)">
                            <path d="M1770.89,371.482C1786.25,371.482 1798.72,383.953 1798.72,399.313C1798.72,414.674 1786.25,427.145 1770.89,427.145C1755.53,427.145 1743.05,414.674 1743.05,399.313C1743.05,383.953 1755.53,371.482 1770.89,371.482ZM1770.89,378.44C1782.41,378.44 1791.76,387.793 1791.76,399.313C1791.76,410.834 1782.41,420.187 1770.89,420.187C1759.37,420.187 1750.01,410.834 1750.01,399.313C1750.01,387.793 1759.37,378.44 1770.89,378.44Z" style="fill:rgb(29,38,61);"/>
                        </g>
                        <g transform="matrix(0.536359,0,0,0.536359,613.086,358.108)">
                            <circle cx="1770.89" cy="399.313" r="27.831" style="fill:rgb(29,38,61);"/>
                        </g>
                    </g>
                </g>
                <g transform="matrix(-0.998716,0,0,1,7491.61,671.542)">
                    <g transform="matrix(-1.75115,0,0,1,9098.32,434.255)">
                        <g transform="matrix(1,0,0,1,0,-5)">
                            <g>
                                <g transform="matrix(0.845698,0,0,0.164339,321.366,1174.84)">
                                    <path d="M682.123,1226.78C682.123,1209.65 679.421,1195.75 676.093,1195.75L505.737,1195.75C502.409,1195.75 499.707,1209.65 499.707,1226.78L499.707,1468.97C499.707,1486.1 502.409,1500 505.737,1500L676.093,1500C679.421,1500 682.123,1486.1 682.123,1468.97L682.123,1226.78Z" style="fill:rgb(29,38,61);"/>
                                </g>
                                <g>
                                    <g transform="matrix(1,0,0,1,0,-5.11727)">
                                        <path d="M821.102,1398.91C821.102,1397.5 819.955,1396.35 818.543,1396.35L755.727,1396.35C754.314,1396.35 753.168,1397.5 753.168,1398.91L753.168,1404.02C753.168,1405.44 754.314,1406.58 755.727,1406.58L818.543,1406.58C819.955,1406.58 821.102,1405.44 821.102,1404.02L821.102,1398.91Z" style="fill:rgb(240,242,247);"/>
                                    </g>
                                    <g transform="matrix(0.147202,0,0,0.977083,768.149,26.8823)">
                                        <path d="M821.102,1398.91C821.102,1397.5 813.492,1396.35 804.118,1396.35L770.151,1396.35C760.778,1396.35 753.168,1397.5 753.168,1398.91L753.168,1404.02C753.168,1405.44 760.778,1406.58 770.151,1406.58L804.118,1406.58C813.492,1406.58 821.102,1405.44 821.102,1404.02L821.102,1398.91Z" style="fill:rgb(240,242,247);"/>
                                    </g>
                                    <g transform="matrix(0.147202,0,0,0.977083,749.149,26.8823)">
                                        <path d="M821.102,1398.91C821.102,1397.5 813.492,1396.35 804.118,1396.35L770.151,1396.35C760.778,1396.35 753.168,1397.5 753.168,1398.91L753.168,1404.02C753.168,1405.44 760.778,1406.58 770.151,1406.58L804.118,1406.58C813.492,1406.58 821.102,1405.44 821.102,1404.02L821.102,1398.91Z" style="fill:rgb(240,242,247);"/>
                                    </g>
                                    <g transform="matrix(0.147202,0,0,0.977083,730.149,26.8823)">
                                        <path d="M821.102,1398.91C821.102,1397.5 813.492,1396.35 804.118,1396.35L770.151,1396.35C760.778,1396.35 753.168,1397.5 753.168,1398.91L753.168,1404.02C753.168,1405.44 760.778,1406.58 770.151,1406.58L804.118,1406.58C813.492,1406.58 821.102,1405.44 821.102,1404.02L821.102,1398.91Z" style="fill:rgb(240,242,247);"/>
                                    </g>
                                </g>
                            </g>
                            <g transform="matrix(1,0,0,1,0,60)">
                                <g transform="matrix(0.845698,0,0,0.164339,321.366,1174.84)">
                                    <path d="M682.123,1226.78C682.123,1209.65 679.421,1195.75 676.093,1195.75L505.737,1195.75C502.409,1195.75 499.707,1209.65 499.707,1226.78L499.707,1468.97C499.707,1486.1 502.409,1500 505.737,1500L676.093,1500C679.421,1500 682.123,1486.1 682.123,1468.97L682.123,1226.78Z" style="fill:rgb(29,38,61);"/>
                                </g>
                                <g>
                                    <g transform="matrix(1,0,0,1,0,-5.11727)">
                                        <path d="M821.102,1398.91C821.102,1397.5 819.955,1396.35 818.543,1396.35L755.727,1396.35C754.314,1396.35 753.168,1397.5 753.168,1398.91L753.168,1404.02C753.168,1405.44 754.314,1406.58 755.727,1406.58L818.543,1406.58C819.955,1406.58 821.102,1405.44 821.102,1404.02L821.102,1398.91Z" style="fill:rgb(240,242,247);"/>
                                    </g>
                                    <g transform="matrix(0.147202,0,0,0.977083,768.149,26.8823)">
                                        <path d="M821.102,1398.91C821.102,1397.5 813.492,1396.35 804.118,1396.35L770.151,1396.35C760.778,1396.35 753.168,1397.5 753.168,1398.91L753.168,1404.02C753.168,1405.44 760.778,1406.58 770.151,1406.58L804.118,1406.58C813.492,1406.58 821.102,1405.44 821.102,1404.02L821.102,1398.91Z" style="fill:rgb(240,242,247);"/>
                                    </g>
                                    <g transform="matrix(0.147202,0,0,0.977083,749.149,26.8823)">
                                        <path d="M821.102,1398.91C821.102,1397.5 813.492,1396.35 804.118,1396.35L770.151,1396.35C760.778,1396.35 753.168,1397.5 753.168,1398.91L753.168,1404.02C753.168,1405.44 760.778,1406.58 770.151,1406.58L804.118,1406.58C813.492,1406.58 821.102,1405.44 821.102,1404.02L821.102,1398.91Z" style="fill:rgb(240,242,247);"/>
                                    </g>
                                    <g transform="matrix(0.147202,0,0,0.977083,730.149,26.8823)">
                                        <path d="M821.102,1398.91C821.102,1397.5 813.492,1396.35 804.118,1396.35L770.151,1396.35C760.778,1396.35 753.168,1397.5 753.168,1398.91L753.168,1404.02C753.168,1405.44 760.778,1406.58 770.151,1406.58L804.118,1406.58C813.492,1406.58 821.102,1405.44 821.102,1404.02L821.102,1398.91Z" style="fill:rgb(240,242,247);"/>
                                    </g>
                                </g>
                            </g>
                            <g transform="matrix(1,0,0,1,0,120)">
                                <g transform="matrix(0.845698,0,0,0.164339,321.366,1174.84)">
                                    <path d="M682.123,1226.78C682.123,1209.65 679.421,1195.75 676.093,1195.75L505.737,1195.75C502.409,1195.75 499.707,1209.65 499.707,1226.78L499.707,1468.97C499.707,1486.1 502.409,1500 505.737,1500L676.093,1500C679.421,1500 682.123,1486.1 682.123,1468.97L682.123,1226.78Z" style="fill:rgb(29,38,61);"/>
                                </g>
                                <g>
                                    <g transform="matrix(1,0,0,1,0,-5.11727)">
                                        <path d="M821.102,1398.91C821.102,1397.5 819.955,1396.35 818.543,1396.35L755.727,1396.35C754.314,1396.35 753.168,1397.5 753.168,1398.91L753.168,1404.02C753.168,1405.44 754.314,1406.58 755.727,1406.58L818.543,1406.58C819.955,1406.58 821.102,1405.44 821.102,1404.02L821.102,1398.91Z" style="fill:rgb(240,242,247);"/>
                                    </g>
                                    <g transform="matrix(0.147202,0,0,0.977083,768.149,26.8823)">
                                        <path d="M821.102,1398.91C821.102,1397.5 813.492,1396.35 804.118,1396.35L770.151,1396.35C760.778,1396.35 753.168,1397.5 753.168,1398.91L753.168,1404.02C753.168,1405.44 760.778,1406.58 770.151,1406.58L804.118,1406.58C813.492,1406.58 821.102,1405.44 821.102,1404.02L821.102,1398.91Z" style="fill:rgb(240,242,247);"/>
                                    </g>
                                    <g transform="matrix(0.147202,0,0,0.977083,749.149,26.8823)">
                                        <path d="M821.102,1398.91C821.102,1397.5 813.492,1396.35 804.118,1396.35L770.151,1396.35C760.778,1396.35 753.168,1397.5 753.168,1398.91L753.168,1404.02C753.168,1405.44 760.778,1406.58 770.151,1406.58L804.118,1406.58C813.492,1406.58 821.102,1405.44 821.102,1404.02L821.102,1398.91Z" style="fill:rgb(240,242,247);"/>
                                    </g>
                                    <g transform="matrix(0.147202,0,0,0.977083,730.149,26.8823)">
                                        <path d="M821.102,1398.91C821.102,1397.5 813.492,1396.35 804.118,1396.35L770.151,1396.35C760.778,1396.35 753.168,1397.5 753.168,1398.91L753.168,1404.02C753.168,1405.44 760.778,1406.58 770.151,1406.58L804.118,1406.58C813.492,1406.58 821.102,1405.44 821.102,1404.02L821.102,1398.91Z" style="fill:rgb(240,242,247);"/>
                                    </g>
                                </g>
                            </g>
                        </g>
                        <g transform="matrix(1,0,0,1,193.766,-809.931)">
                            <text x="554.68px" y="2423.92px" style="font-family:'Lato-Bold', 'Lato', sans-serif;font-weight:700;font-size:64px;fill:rgb(29,39,61);">WEB</text>
                        </g>
                    </g>
                    <g transform="matrix(-1.07227e-16,1,1.75115,6.12323e-17,6185.25,1364.46)">
                        <g transform="matrix(0.505913,0,0,0.505913,381.449,411.288)">
                            <circle cx="791.794" cy="852.188" r="19.766" style="fill:rgb(29,38,61);"/>
                        </g>
                        <g transform="matrix(0.505913,0,0,0.505913,421.449,411.288)">
                            <circle cx="791.794" cy="852.188" r="19.766" style="fill:rgb(29,38,61);"/>
                        </g>
                        <g transform="matrix(0.505913,0,0,0.505913,461.449,411.288)">
                            <circle cx="791.794" cy="852.188" r="19.766" style="fill:rgb(29,38,61);"/>
                        </g>
                    </g>
                    <g transform="matrix(-1.07227e-16,1,1.75115,6.12323e-17,6185.25,842.055)">
                        <g transform="matrix(0.505913,0,0,0.505913,381.449,411.288)">
                            <circle cx="791.794" cy="852.188" r="19.766" style="fill:rgb(29,38,61);"/>
                        </g>
                        <g transform="matrix(0.505913,0,0,0.505913,421.449,411.288)">
                            <circle cx="791.794" cy="852.188" r="19.766" style="fill:rgb(29,38,61);"/>
                        </g>
                        <g transform="matrix(0.505913,0,0,0.505913,461.449,411.288)">
                            <circle cx="791.794" cy="852.188" r="19.766" style="fill:rgb(29,38,61);"/>
                        </g>
                    </g>
                </g>
                <g transform="matrix(1.43936e-16,0.443183,-0.291506,1.04223e-16,674.977,1602.26)">
                    <path d="M1384.04,654.509L1384.04,550.086L1667.6,550.086L1667.6,445.662L1785.42,602.298L1667.6,758.933L1667.6,654.509L1384.04,654.509Z" style="fill:rgb(135,245,188);"/>
                </g>
                <g transform="matrix(1.43936e-16,0.443183,-0.291506,1.04223e-16,301.841,2114.79)">
                    <path d="M1384.04,654.509L1384.04,550.086L1667.6,550.086L1667.6,445.662L1785.42,602.298L1667.6,758.933L1667.6,654.509L1384.04,654.509Z" style="fill:rgb(135,245,188);"/>
                </g>
                <g transform="matrix(2.95189e-16,-0.443183,0.291506,-9.78949e-18,-49.3059,3006.91)">
                    <path d="M1384.04,654.509L1384.04,550.086L1667.6,550.086L1667.6,445.662L1785.42,602.298L1667.6,758.933L1667.6,654.509L1384.04,654.509Z" style="fill:rgb(135,245,188);"/>
                </g>
                <g transform="matrix(-4.90157e-17,-0.443183,0.291506,-8.38102e-17,323.83,3519.44)">
                    <path d="M1384.04,654.509L1384.04,550.086L1667.6,550.086L1667.6,445.662L1785.42,602.298L1667.6,758.933L1667.6,654.509L1384.04,654.509Z" style="fill:rgb(135,245,188);"/>
                </g>
            </g>
            <g transform="matrix(1,0,0,1,1892.1,-7.85856)">
                <g transform="matrix(1,0,0,1,1141.55,327.366)">
                    <text x="969.871px" y="1413.06px" style="font-family:'Lato-Regular', 'Lato', sans-serif;font-size:32px;fill:rgb(95,120,178);">REQUEST OBJECT D<tspan x="1268.02px 1287.66px " y="1413.06px 1413.06px ">AT</tspan>A</text>
                </g>
                <g transform="matrix(1,0,0,1,1141.55,405.151)">
                    <text x="1020.46px" y="1413.06px" style="font-family:'Lato-Regular', 'Lato', sans-serif;font-size:32px;fill:rgb(95,120,178);">DOMAIN MODEL</text>
                </g>
                <g transform="matrix(0.516922,0,0,0.224376,1686.63,1657.45)">
                    <path d="M322.927,495.796L2000,495.796" style="fill:none;stroke:rgb(125,146,208);stroke-width:33.46px;"/>
                </g>
                <g transform="matrix(2.24102,0,0,2.24102,-1885.27,-657.086)">
                    <g transform="matrix(0.54002,0,0,0.54002,792.483,804.497)">
                        <circle cx="2369.26" cy="514.885" r="30.987" style="fill:rgb(125,146,208);"/>
                    </g>
                    <g transform="matrix(0.466128,0,0,0.466128,967.551,842.543)">
                        <circle cx="2369.26" cy="514.885" r="30.987" style="fill:rgb(251,252,253);"/>
                    </g>
                    <g transform="matrix(0.334498,0,0,0.334498,1279.42,910.317)">
                        <circle cx="2369.26" cy="514.885" r="30.987" style="fill:rgb(125,146,208);"/>
                    </g>
                </g>
                <g transform="matrix(2.24102,0,0,2.24102,-2822.06,-657.086)">
                    <g transform="matrix(0.54002,0,0,0.54002,792.483,804.497)">
                        <circle cx="2369.26" cy="514.885" r="30.987" style="fill:rgb(125,146,208);"/>
                    </g>
                    <g transform="matrix(0.466128,0,0,0.466128,967.551,842.543)">
                        <circle cx="2369.26" cy="514.885" r="30.987" style="fill:rgb(251,252,253);"/>
                    </g>
                    <g transform="matrix(0.334498,0,0,0.334498,1279.42,910.317)">
                        <circle cx="2369.26" cy="514.885" r="30.987" style="fill:rgb(125,146,208);"/>
                    </g>
                </g>
                <g transform="matrix(0.443183,-4.996e-17,9.15934e-17,0.16668,1587.26,1573.14)">
                    <path d="M1384.04,654.509L1384.04,550.086L1667.6,550.086L1667.6,445.662L1785.42,602.298L1667.6,758.933L1667.6,654.509L1384.04,654.509Z" style="fill:rgb(135,245,188);"/>
                </g>
                <g transform="matrix(-0.443183,-4.3142e-18,-7.1181e-17,-0.16668,2991.91,1973.21)">
                    <path d="M1384.04,654.509L1384.04,550.086L1667.6,550.086L1667.6,445.662L1785.42,602.298L1667.6,758.933L1667.6,654.509L1384.04,654.509Z" style="fill:rgb(135,245,188);"/>
                </g>
            </g>
        </g>
        <g id="Info-Group" serif:id="Info Group">
            <g id="UI-Info-Block" serif:id="UI Info Block" transform="matrix(0.527288,0,0,0.560617,3572.51,-1366.17)">
                <g transform="matrix(1.10832,-1.98159e-17,1.7038e-17,-1.25875,554.715,3265.43)">
                    <rect x="1700.18" y="-0" width="797.552" height="203.404" style="fill:rgb(240,247,253);"/>
                </g>
                <g transform="matrix(1.8965,0,0,1.78375,2272.65,-816.777)">
                    <text x="111.518px" y="2186.94px" style="font-family:'Lato-Regular', 'Lato', sans-serif;font-size:24px;fill:rgb(125,186,241);">Injecting required services for speciﬁc</text>
                    <text x="111.518px" y="2222.94px" style="font-family:'Lato-Regular', 'Lato', sans-serif;font-size:24px;fill:rgb(125,186,241);">domain or shared domain services to</text>
                    <text x="111.518px" y="2258.94px" style="font-family:'Lato-Regular', 'Lato', sans-serif;font-size:24px;fill:rgb(125,186,241);">e<tspan x="123.374px 134.75px 147.326px " y="2258.94px 2258.94px 2258.94px ">xec</tspan>ute it&apos;s method</text>
                </g>
            </g>
            <g id="App-Services-Info-Block" serif:id="App Services Info Block" transform="matrix(0.648665,0,0,0.560617,3442.45,268.067)">
                <g transform="matrix(1.21272,-4.3277e-17,5.09173e-17,-1.5941,377.201,3333.64)">
                    <rect x="1700.18" y="-0" width="797.552" height="203.404" style="fill:rgb(252,244,227);"/>
                </g>
                <g transform="matrix(1.54163,0,0,1.78375,2295.8,-813.486)">
                    <text x="111.518px" y="2186.94px" style="font-family:'Lato-Regular', 'Lato', sans-serif;font-size:24px;fill:rgb(236,179,45);">Service method logic is stored in domain la<tspan x="552.038px 564.014px 576.59px 584.678px 589.766px " y="2186.94px 2186.94px 2186.94px 2186.94px 2186.94px ">yer. </tspan>In that</text>
                    <text x="111.518px" y="2222.94px" style="font-family:'Lato-Regular', 'Lato', sans-serif;font-size:24px;fill:rgb(236,179,45);">case  we ha<tspan x="227.87px 239.846px 252.422px " y="2222.94px 2222.94px 2222.94px ">ve </tspan>fvacade here, and all required</text>
                    <text x="111.518px" y="2258.94px" style="font-family:'Lato-Regular', 'Lato', sans-serif;font-size:24px;fill:rgb(236,179,45);">dependencies to e<tspan x="299.774px 311.15px 323.726px " y="2258.94px 2258.94px 2258.94px ">xec</tspan>ute this logic are injected in Core</text>
                    <text x="111.518px" y="2294.94px" style="font-family:'Lato-Regular', 'Lato', sans-serif;font-size:24px;fill:rgb(236,179,45);">la<tspan x="129.446px 141.422px 153.998px 162.086px 167.174px " y="2294.94px 2294.94px 2294.94px 2294.94px 2294.94px ">yer. </tspan>UI La<tspan x="225.446px 237.422px 249.998px " y="2294.94px 2294.94px 2294.94px ">yer</tspan> has an access to Core La<tspan x="515.342px 527.318px 539.894px " y="2294.94px 2294.94px 2294.94px ">yer</tspan></text>
                </g>
            </g>
            <g id="Infra-Info-Block" serif:id="Infra Info Block" transform="matrix(1.04276,0,0,0.830338,972.768,-337.606)">
                <g transform="matrix(1.00765,-2.79196e-17,1.66783e-17,-1.17242,963.545,3247.87)">
                    <rect x="1700.18" y="-0" width="797.552" height="203.404" style="fill:rgb(231,235,245);"/>
                </g>
                <g transform="matrix(0.958993,0,0,1.20433,2579.96,414.823)">
                    <text x="111.518px" y="2186.94px" style="font-family:'Lato-Regular', 'Lato', sans-serif;font-size:24px;fill:rgb(95,120,178);">Speciﬁc user action will e<tspan x="370.67px 382.046px 394.622px " y="2186.94px 2186.94px 2186.94px ">xec</tspan>ute one of injected domain services method. Input</text>
                    <text x="111.518px" y="2222.94px" style="font-family:'Lato-Regular', 'Lato', sans-serif;font-size:24px;fill:rgb(95,120,178);">data will be pro<tspan x="270.878px 283.166px " y="2222.94px 2222.94px ">vi</tspan>ded through Request Object. Output data will be domain</text>
                    <text x="111.518px" y="2258.94px" style="font-family:'Lato-Regular', 'Lato', sans-serif;font-size:24px;fill:rgb(95,120,178);">model which can be tr<tspan x="338.534px 350.702px " y="2258.94px 2258.94px ">an</tspan>slated to UI model if needed. Once y<tspan x="737.99px 751.334px " y="2258.94px 2258.94px ">ou</tspan> receiv<tspan x="833.462px 846.038px " y="2258.94px 2258.94px ">e </tspan>output</text>
                    <text x="111.518px" y="2294.94px" style="font-family:'Lato-Regular', 'Lato', sans-serif;font-size:24px;fill:rgb(95,120,178);">data from domain y<tspan x="313.022px 326.366px " y="2294.94px 2294.94px ">ou</tspan> can tr<tspan x="403.862px 416.03px " y="2294.94px 2294.94px ">an</tspan>sform it to an<tspan x="567.014px 579.302px " y="2294.94px 2294.94px ">y </tspan>structure depending on e<tspan x="844.838px 856.934px " y="2294.94px 2294.94px ">xt</tspan>ernal</text>
                    <text x="111.518px" y="2330.94px" style="font-family:'Lato-Regular', 'Lato', sans-serif;font-size:24px;fill:rgb(95,120,178);">user needs.</text>
                </g>
            </g>
            <g id="Infra-Info-Block1" serif:id="Infra Info Block" transform="matrix(0.57091,0,0,0.432686,435.412,31.0738)">
                <g transform="matrix(1.00765,-1.61121e-16,9.26692e-17,-1.99116,963.545,3414.4)">
                    <rect x="1700.18" y="-0" width="797.552" height="203.404" style="fill:rgb(231,235,245);"/>
                </g>
                <g transform="matrix(1.75159,0,0,2.31115,2516.87,-1951.42)">
                    <text x="111.518px" y="2186.94px" style="font-family:'Lato-Regular', 'Lato', sans-serif;font-size:24px;fill:rgb(95,120,178);">Depending on protocol of</text>
                    <text x="111.518px" y="2222.94px" style="font-family:'Lato-Regular', 'Lato', sans-serif;font-size:24px;fill:rgb(95,120,178);">communication  we are injecting here</text>
                    <text x="111.518px" y="2258.94px" style="font-family:'Lato-Regular', 'Lato', sans-serif;font-size:24px;fill:rgb(95,120,178);">required domain service ( to resolv<tspan x="472.118px 484.694px " y="2258.94px 2258.94px ">er</tspan>s,</text>
                    <text x="111.518px" y="2294.94px" style="font-family:'Lato-Regular', 'Lato', sans-serif;font-size:24px;fill:rgb(95,120,178);">controllers or an<tspan x="283.742px 296.03px " y="2294.94px 2294.94px ">y </tspan>other structure )</text>
                </g>
            </g>
            <g id="Infra-Info-Block2" serif:id="Infra Info Block" transform="matrix(0.57091,0,0,0.432686,708.882,1086.5)">
                <g transform="matrix(1.00765,-1.61121e-16,9.26692e-17,-1.99116,963.545,3414.4)">
                    <rect x="1700.18" y="-0" width="797.552" height="203.404" style="fill:rgb(231,235,245);"/>
                </g>
                <g transform="matrix(1.75159,0,0,2.31115,2516.87,-1951.42)">
                    <text x="111.518px" y="2186.94px" style="font-family:'Lato-Regular', 'Lato', sans-serif;font-size:24px;fill:rgb(95,120,178);">Sometimes we can reuse domain model</text>
                    <text x="111.518px" y="2222.94px" style="font-family:'Lato-Regular', 'Lato', sans-serif;font-size:24px;fill:rgb(95,120,178);">if response is in the same structure but</text>
                    <text x="111.518px" y="2258.94px" style="font-family:'Lato-Regular', 'Lato', sans-serif;font-size:24px;fill:rgb(95,120,178);">it&apos;s recommended to map domain model</text>
                    <text x="111.518px" y="2294.94px" style="font-family:'Lato-Regular', 'Lato', sans-serif;font-size:24px;fill:rgb(95,120,178);">to ui model and apply tr<tspan x="355.838px 368.006px " y="2294.94px 2294.94px ">an</tspan>sformations</text>
                </g>
            </g>
            <g id="Infra-Info-Block3" serif:id="Infra Info Block" transform="matrix(1.04276,0,0,0.635227,-2153.59,-1020.36)">
                <g transform="matrix(1.00765,-2.79196e-17,1.66783e-17,-1.17242,963.545,3247.87)">
                    <rect x="1700.18" y="-0" width="797.552" height="203.404" style="fill:rgb(231,235,245);"/>
                </g>
                <g transform="matrix(0.958993,0,0,1.57424,2579.96,-387.61)">
                    <text x="111.518px" y="2186.94px" style="font-family:'Lato-Regular', 'Lato', sans-serif;font-size:24px;fill:rgb(95,120,178);">User interface la<tspan x="283.622px 295.598px 308.174px " y="2186.94px 2186.94px 2186.94px ">yer</tspan> is just an input la<tspan x="494.846px 506.822px 519.398px " y="2186.94px 2186.94px 2186.94px ">yer</tspan> for multiple protocols of</text>
                    <text x="111.518px" y="2222.94px" style="font-family:'Lato-Regular', 'Lato', sans-serif;font-size:24px;fill:rgb(95,120,178);">communication or multiple wa<tspan x="426.806px 439.094px " y="2222.94px 2222.94px ">ys</tspan> of communicating with serv<tspan x="741.806px 754.382px 762.47px 767.558px " y="2222.94px 2222.94px 2222.94px 2222.94px ">er. </tspan>It can be</text>
                    <text x="111.518px" y="2258.94px" style="font-family:'Lato-Regular', 'Lato', sans-serif;font-size:24px;fill:rgb(95,120,178);">communication based on W<tspan x="400.118px 412.694px " y="2258.94px 2258.94px ">eb</tspan> lik<tspan x="454.886px 467.462px " y="2258.94px 2258.94px ">e </tspan>GrqphQL<tspan x="571.526px 576.614px " y="2258.94px 2258.94px ">, </tspan>REST or it can be CLI app - from</text>
                    <text x="111.518px" y="2294.94px" style="font-family:'Lato-Regular', 'Lato', sans-serif;font-size:24px;fill:rgb(95,120,178);">architectur<tspan x="228.302px 240.47px " y="2294.94px 2294.94px ">al</tspan> point of view it doesn<tspan x="472.958px 478.478px " y="2294.94px 2294.94px ">&apos;t</tspan> really matter<tspan x="626.126px " y="2294.94px ">.</tspan></text>
                </g>
            </g>
        </g>
        <g id="DI" transform="matrix(1,0,0,1,0,5.18545)">
            <g>
                <g transform="matrix(1.07009,0,0,1.04863,-30.2996,-184.466)">
                    <rect x="369.121" y="3793.37" width="5266.18" height="106.634" style="fill:rgb(225,232,244);"/>
                </g>
                <g transform="matrix(1,0,0,1,-145.969,3793.37)">
                    <text x="2856px" y="73.742px" style="font-family:'Lato-Bold', 'Lato', sans-serif;font-weight:700;font-size:48px;fill:rgb(72,102,157);">DEPENDENCY INJECTION</text>
                </g>
            </g>
            <g transform="matrix(1,0,0,1.04863,0,-5.18545)">
                <g transform="matrix(1.07009,0,0,1,-30.2996,-3793.37)">
                    <rect x="369.121" y="3793.37" width="5266.18" height="106.634" style="fill:rgb(225,232,244);"/>
                </g>
                <g transform="matrix(1,0,0,0.953627,-145.969,-3.36075e-12)">
                    <text x="2856px" y="73.742px" style="font-family:'Lato-Bold', 'Lato', sans-serif;font-weight:700;font-size:48px;fill:rgb(72,102,157);">DEPENDENCY INJECTION</text>
                </g>
            </g>
            <g transform="matrix(4.41072e-17,-0.720325,1,6.12323e-17,-3428.67,4059.25)">
                <rect x="369.121" y="3793.37" width="5266.18" height="106.634" style="fill:rgb(225,232,244);"/>
            </g>
        </g>
        <g id="External-Internal-User" serif:id="External/Internal User" transform="matrix(1,0,0,1.00266,5.68434e-14,-6.12843e-13)">
            <rect x="0" y="0" width="364.694" height="3900" style="fill:rgb(82,90,108);"/>
            <g transform="matrix(6.10699e-17,-0.997348,1,6.12323e-17,-667.304,4005.76)">
                <text x="1418.31px" y="885.316px" style="font-family:'Lato-Bold', 'Lato', sans-serif;font-weight:700;font-size:96px;fill:rgb(232,234,238);">INTERNAL \ EXTERNAL USER</text>
            </g>
        </g>
    </g>
</svg>
